<?xml version="1.0" encoding="utf-8"?>
<!-- Generator: Adobe Illustrator 24.0.3, SVG Export Plug-In . SVG Version: 6.00 Build 0)  -->
<svg version="1.1" id="Layer_1" xmlns="http://www.w3.org/2000/svg" xmlns:xlink="http://www.w3.org/1999/xlink" x="0px" y="0px"
	 viewBox="0 0 2387.5 1663.2" style="enable-background:new 0 0 2387.5 1663.2;" xml:space="preserve">
<style type="text/css">
	.st0{fill:url(#SVGID_1_);}
	.st1{fill:url(#SVGID_2_);}
	.st2{fill:url(#SVGID_3_);}
	.st3{fill:url(#SVGID_4_);}
	.st4{fill:url(#SVGID_5_);}
	.st5{fill:url(#SVGID_6_);}
	.st6{fill:url(#SVGID_7_);}
	.st7{clip-path:url(#SVGID_9_);fill:url(#SVGID_10_);}
	.st8{clip-path:url(#SVGID_9_);fill-rule:evenodd;clip-rule:evenodd;fill:url(#SVGID_11_);}
	.st9{fill:url(#SVGID_12_);}
	.st10{fill:url(#SVGID_13_);}
	.st11{fill:#FDD233;}
	.st12{fill:url(#SVGID_14_);}
	.st13{fill:url(#SVGID_15_);}
	.st14{fill:url(#SVGID_16_);}
	.st15{fill:url(#SVGID_17_);}
	.st16{fill:url(#SVGID_18_);}
	.st17{fill:url(#SVGID_19_);}
	.st18{fill:url(#SVGID_20_);}
	.st19{fill:url(#SVGID_21_);}
	.st20{fill:url(#SVGID_22_);}
	.st21{fill:url(#SVGID_23_);}
	.st22{fill:url(#SVGID_24_);}
	.st23{fill:url(#SVGID_25_);}
	.st24{fill:url(#SVGID_26_);}
	.st25{fill:url(#SVGID_27_);}
	.st26{fill:url(#SVGID_28_);}
	.st27{fill:url(#SVGID_29_);}
	.st28{fill:url(#SVGID_30_);}
	.st29{fill:url(#SVGID_31_);}
	.st30{fill:url(#SVGID_32_);}
	.st31{fill:url(#SVGID_33_);}
	.st32{fill:url(#SVGID_34_);}
	.st33{fill:url(#SVGID_35_);}
	.st34{fill:#F5F4F3;}
	.st35{fill:url(#SVGID_36_);}
	.st36{fill:url(#SVGID_37_);}
	.st37{fill:url(#SVGID_38_);}
	.st38{fill:#151011;}
	.st39{fill:url(#SVGID_39_);}
	.st40{fill:url(#SVGID_40_);}
	.st41{fill:url(#SVGID_41_);}
	.st42{fill:url(#SVGID_42_);}
	.st43{fill:url(#SVGID_43_);}
	.st44{fill:url(#SVGID_44_);}
	.st45{fill:url(#SVGID_45_);}
	.st46{fill:url(#SVGID_46_);}
	.st47{fill:#FFFFFF;}
	.st48{fill:url(#SVGID_47_);}
	.st49{fill:url(#SVGID_48_);}
	.st50{clip-path:url(#SVGID_50_);}
	.st51{fill:url(#SVGID_51_);}
	.st52{fill:url(#SVGID_52_);}
	.st53{fill:url(#SVGID_53_);}
	.st54{fill:url(#SVGID_54_);}
	.st55{fill:url(#SVGID_55_);}
	.st56{fill:url(#SVGID_56_);}
	.st57{fill:url(#SVGID_57_);}
	.st58{fill:url(#SVGID_58_);}
	.st59{fill:#8775B6;}
	.st60{fill:#580B02;}
	.st61{fill:url(#SVGID_59_);}
	.st62{fill:url(#SVGID_60_);}
	.st63{fill:url(#SVGID_61_);}
	.st64{fill:url(#SVGID_62_);}
	.st65{fill:url(#SVGID_63_);}
	.st66{fill:url(#SVGID_64_);}
	.st67{fill:url(#SVGID_65_);}
	.st68{fill:url(#SVGID_66_);}
	.st69{fill:url(#SVGID_67_);}
	.st70{fill:url(#SVGID_68_);}
	.st71{fill:#EDEFF6;}
	.st72{fill:url(#SVGID_69_);}
	.st73{fill:url(#SVGID_70_);}
	.st74{fill:url(#SVGID_71_);}
	.st75{fill:url(#SVGID_72_);}
	.st76{fill:#282A35;}
	.st77{fill:#B1E2E3;}
	.st78{fill:url(#SVGID_73_);}
	.st79{fill:url(#SVGID_74_);}
	.st80{fill:#111623;}
	.st81{fill:url(#SVGID_75_);}
	.st82{fill:#140B4C;}
	.st83{fill:#253B8E;}
	.st84{fill:url(#SVGID_76_);}
	.st85{fill:#E9E7E3;}
	.st86{fill:url(#SVGID_77_);}
	.st87{fill:url(#SVGID_78_);}
	.st88{fill:#FDDC70;}
	.st89{fill:url(#SVGID_79_);}
	.st90{fill:url(#SVGID_80_);}
	.st91{fill:url(#SVGID_81_);}
	.st92{fill:url(#SVGID_82_);}
	.st93{fill:url(#SVGID_83_);}
	.st94{fill:url(#SVGID_84_);}
</style>
<g>
	<g>
		<g>
			
				<linearGradient id="SVGID_1_" gradientUnits="userSpaceOnUse" x1="438.0869" y1="696.4078" x2="423.5779" y2="521.3953" gradientTransform="matrix(0.9997 -2.450000e-02 2.450000e-02 0.9997 26.8749 7.951)">
				<stop  offset="0" style="stop-color:#FFFFFF"/>
				<stop  offset="1" style="stop-color:#9ECBE1"/>
			</linearGradient>
			<path class="st0" d="M677.7,693.1c-6.7,0.4-13.5-1.7-18.9-6.5c-50.5-44.7-115.4-66.8-182.7-62.4c-66.7,4.4-127.8,34.6-171.8,84.9
				c-9.4,10.8-25.8,11.8-36.6,2.4c-10.8-9.4-11.8-25.8-2.4-36.6c53.2-60.7,126.9-97.1,207.4-102.4c81.2-5.4,159.5,21.3,220.5,75.3
				c10.7,9.5,11.7,25.9,2.2,36.6C690.7,689.8,684.3,692.7,677.7,693.1z"/>
		</g>
		<g>
			
				<linearGradient id="SVGID_2_" gradientUnits="userSpaceOnUse" x1="434.9599" y1="623.313" x2="417.1314" y2="408.2581" gradientTransform="matrix(0.9997 -2.450000e-02 2.450000e-02 0.9997 26.8749 7.951)">
				<stop  offset="0" style="stop-color:#FFFFFF"/>
				<stop  offset="1" style="stop-color:#9ECBE1"/>
			</linearGradient>
			<path class="st1" d="M761.9,608.5c9.5-10.7,8.5-27.1-2.3-36.6c-81.2-71.7-185.5-107.2-293.6-100
				c-107.4,7.1-205.7,55.7-276.6,136.6c-9.4,10.8-8.4,27.2,2.4,36.6c10.8,9.4,27.1,8.4,36.6-2.4c61.8-70.6,147.5-112.8,241.1-119.1
				c94.2-6.3,185,24.7,255.8,87.1c5.4,4.8,12.2,6.9,18.9,6.4C750.8,616.8,757.2,613.9,761.9,608.5z"/>
		</g>
		<g>
			
				<linearGradient id="SVGID_3_" gradientUnits="userSpaceOnUse" x1="441.5078" y1="776.2226" x2="430.6253" y2="644.9529" gradientTransform="matrix(0.9997 -2.450000e-02 2.450000e-02 0.9997 26.8749 7.951)">
				<stop  offset="0" style="stop-color:#FFFFFF"/>
				<stop  offset="1" style="stop-color:#9ECBE1"/>
			</linearGradient>
			<path class="st2" d="M622.8,767.4c9.5-10.7,8.6-27.1-2.1-36.6c-38.8-34.6-88.8-51.7-140.7-48.3c-51.2,3.4-98,26.5-131.8,65
				c-9.5,10.8-8.4,27.2,2.4,36.6c10.8,9.4,27.2,8.4,36.6-2.4c24.7-28.2,58.9-45,96.3-47.5c37.9-2.5,74.4,10,102.7,35.3
				c5.4,4.8,12.3,7,19,6.5C611.7,775.6,618.1,772.7,622.8,767.4z"/>
		</g>
		<g>
			
				<linearGradient id="SVGID_4_" gradientUnits="userSpaceOnUse" x1="438.0869" y1="696.4078" x2="423.5779" y2="521.3953" gradientTransform="matrix(0.9997 -2.450000e-02 2.450000e-02 0.9997 26.8749 7.951)">
				<stop  offset="0" style="stop-color:#FFFFFF"/>
				<stop  offset="1" style="stop-color:#9ECBE1"/>
			</linearGradient>
			<path class="st3" d="M695.4,684.5c9.5-10.7,8.5-27.1-2.2-36.6c-61-53.9-139.3-80.7-220.5-75.3c-80.5,5.3-154.2,41.7-207.4,102.4
				c-9.4,10.8-8.4,27.2,2.4,36.6c10.8,9.4,27.1,8.4,36.6-2.4c44.1-50.3,105.1-80.4,171.8-84.9c67.3-4.5,132.1,17.7,182.7,62.4
				c5.4,4.8,12.2,6.9,18.9,6.5C684.3,692.7,690.7,689.8,695.4,684.5z"/>
		</g>
		<g>
			
				<linearGradient id="SVGID_5_" gradientUnits="userSpaceOnUse" x1="445.7275" y1="878.423" x2="445.7275" y2="878.423" gradientTransform="matrix(0.9997 -2.450000e-02 2.450000e-02 0.9997 26.8749 7.951)">
				<stop  offset="0" style="stop-color:#FFFFFF"/>
				<stop  offset="1" style="stop-color:#9ECBE1"/>
			</linearGradient>
			<path class="st4" d="M494,875.2"/>
		</g>
		<g>
			
				<linearGradient id="SVGID_6_" gradientUnits="userSpaceOnUse" x1="441.5078" y1="776.2226" x2="430.6253" y2="644.9529" gradientTransform="matrix(0.9997 -2.450000e-02 2.450000e-02 0.9997 26.8749 7.951)">
				<stop  offset="0" style="stop-color:#FFFFFF"/>
				<stop  offset="1" style="stop-color:#9ECBE1"/>
			</linearGradient>
			<path class="st5" d="M622.8,767.4c9.5-10.7,8.6-27.1-2.1-36.6c-38.8-34.6-88.8-51.7-140.7-48.3c-51.2,3.4-98,26.5-131.8,65
				c-9.5,10.8-8.4,27.2,2.4,36.6c10.8,9.4,27.2,8.4,36.6-2.4c24.7-28.2,58.9-45,96.3-47.5c37.9-2.5,74.4,10,102.7,35.3
				c5.4,4.8,12.3,7,19,6.5C611.7,775.6,618.1,772.7,622.8,767.4z"/>
		</g>
	</g>
	<linearGradient id="SVGID_7_" gradientUnits="userSpaceOnUse" x1="489.7621" y1="869.8566" x2="478.9528" y2="739.4702">
		<stop  offset="0" style="stop-color:#FFFFFF"/>
		<stop  offset="1" style="stop-color:#9ECBE1"/>
	</linearGradient>
	<path class="st6" d="M484.4,779.6c-29.2,1.2-51.9,25.9-50.7,55.1c1.2,29.2,25.9,51.9,55.1,50.7c29.2-1.2,51.9-25.9,50.7-55.1
		C538.3,801.1,513.7,778.4,484.4,779.6z"/>
	<g>
		<defs>
			<path id="SVGID_8_" d="M2137.4,1565.8h-1777c0,0-221.2-394.9,87.8-530.5c309.1-135.6,393.3-99.7,386.3-315.1
				c-7-215.4,147.5-347,273.9-279.2c126.4,67.8,235.3,239.3,432,135.6C1737,472.8,2018,488.8,2011,819.8
				c-7,331.1,94.8,319.1,175.6,371C2267.3,1242.7,2369.2,1422.2,2137.4,1565.8z"/>
		</defs>
		<clipPath id="SVGID_9_">
			<use xlink:href="#SVGID_8_"  style="overflow:visible;"/>
		</clipPath>
		<linearGradient id="SVGID_10_" gradientUnits="userSpaceOnUse" x1="283.6877" y1="994.3832" x2="2279.9988" y2="994.3832">
			<stop  offset="0" style="stop-color:#FFFFFF"/>
			<stop  offset="1" style="stop-color:#9ECBE1"/>
		</linearGradient>
		<path class="st7" d="M2137.4,1565.8h-1777c0,0-221.2-394.9,87.8-530.5c309.1-135.6,393.3-99.7,386.3-315.1
			c-7-215.4,147.5-347,273.9-279.2c126.4,67.8,235.3,239.3,432,135.6C1737,472.8,2018,488.8,2011,819.8
			c-7,331.1,94.8,319.1,175.6,371C2267.3,1242.7,2369.2,1422.2,2137.4,1565.8z"/>
		<linearGradient id="SVGID_11_" gradientUnits="userSpaceOnUse" x1="1358.1068" y1="805.2793" x2="1364.264" y2="1978.0627">
			<stop  offset="0" style="stop-color:#FFFFFF"/>
			<stop  offset="1" style="stop-color:#9ECBE1"/>
		</linearGradient>
		<path class="st8" d="M1143.2,1227.2c-3.4-3.7-6-6.7-9.9-10.9c-0.5,3.6-1,5.5-1.1,7.3c-0.1,13.8,0.2,27.7-0.2,41.5
			c-0.1,5.3,2,8.1,6.8,9.5c5.1,1.5,10.1,3.4,16.3,5.5c0-30.3,0-59.8,0-89.6c3.7-0.4,6.4-0.7,9.3-1c0.3-3.4,0.5-6.3,0.9-10.1
			c21.3,0,42.5,0,64.9,0c-0.5-36.4,1.1-72-1.1-110c3.5-3.6,2.2-28.5-4.4-34.7c7.5-2.9,9-27.4,2.3-37.7c12.2-1.2,14.3-6.3,8.6-21.4
			c10.3-1.1,20.2-2.1,30.9-3.3c-0.6-3.7-1.1-7.4-1.8-11.5c1.4-0.1,3.9-0.4,5.9-0.5c2.8-7.3,4.6-14.6,8.3-20.8
			c3-5.1,7.8-9.5,12.6-13.1c4.3-3.2,7.9-5.5,6.6-12c-0.5-2.5,2.7-5.8,4.3-8.7c1.1,0,2.1-0.1,3.2-0.1c1.4,3.6,2.6,7.2,4.1,10.7
			c1.3,2.9,2.2,6.9,4.6,8.4c11.2,7,17.2,17.1,20.7,29.4c0.9,3.1,3.8,5.6,6,8.8c-0.3,2.7-0.7,6.9-1.2,12.1c4.7,0.4,8.6,0.6,12.5,0.9
			c-0.4,0.6-0.9,1.1-1.3,1.7c2.1,2.3,3.8,5.1,6.3,6.8c5.4,3.7,8.1,11.6,7.5,18.8c-0.8,8.6-0.2,17.3-0.2,25.3c4.6,2.1,8.6,4,12.8,6
			c-5.8,6.4-5.8,33.3-1.5,36.4c-1,3.7-2.5,6.9-2.5,10c-0.2,117.7-0.2,235.4-0.2,353.1c0,1.2,0.3,2.4,0.5,4.9
			c2.5-1.1,5.2-1.5,6.1-2.9c8.5-13.3,21.3-15.2,35.4-13.5c1,0.1,2.1,0,3.1-0.1c0.5,0,0.9-0.3,2.5-1c-7.3-12.3-12.9-25.3-28.4-29.9
			c-2.2-0.7-3.9-4.8-4.7-7.6c-0.2-0.7,3.7-3.8,5.8-3.9c12.8-0.4,25.6-0.2,39.5-0.2c0.3-4.8,0.7-9.3,0.8-13.8
			c1.9-78.9,3.7-157.9,5.6-236.8c0.3-10.8,1.1-21.5,0.6-32.3c-0.2-4.1-2.5-8.9-5.4-11.9c-3.9-4.1-6.3-7.1-1.9-12.3
			c1-1.2,0.2-4.1,0.2-6.7c2-0.3,4.2-0.5,6.6-0.8c2.6-10.8,5.2-21.5,7.8-32.2c0.7,0,1.5,0,2.2,0.1c2.2,10.5,4.3,21,6.6,32.1
			c2.4,0.3,4.8,0.6,6.1,0.7c1,3.4,2.5,6.2,2.4,9.1c-0.1,3.1-0.6,7.4-2.7,9.1c-4.9,4.1-6.4,8.7-6.3,14.8
			c2.2,87.9,4.3,175.8,6.4,263.7c0.1,5.6,0,11.2,0,18.2c15.5,0,30.6,0,46.1,0c-0.2,6.8-0.2,12-8.1,10.8c-0.7-0.1-1.7,0.1-2.2,0.5
			c-10,8-17.6,18-24.1,30.4c8.1,0,14.7,0.4,21.2-0.1c6.4-0.5,10.5,1.8,13.9,7.1c2.4,3.7,6,6.6,10.7,11.5c0-80.7,0-158.9,0-237.2
			c0.6,0.2,1.2,0.4,1.8,0.7c1.3-3,3.3-5.8,3.9-9c1.2-6.4-1-12.8,3.6-19.3c2.8-4,0.7-11.4,0.6-17.3c-0.1-4.1-0.6-8.4,6.4-6.6
			c-2.6-15.5,11.3-22.7,15.2-34.7c1.5-4.8,4.6-9.2,7.7-13.3c7-9.5,8.4-20,7.2-31.4c-0.2-1.6,1-3.3,1.5-5c0.6,1.7,1.9,3.5,1.8,5.2
			c-0.6,11,0.7,21,7.3,30.6c7.3,10.6,13,22.3,20.9,33c0-121.9,0-243.8,0-365.6c0.7,0,1.3-0.1,2-0.1c0.6,10.2,0.9,20.5,1.9,30.7
			c3,30.6,19.3,52.8,44.5,69.1c2.1,1.4,5.7,0.4,9.4,0.6c0,0.4,0.1,2.2,0.2,4.5c1.7-2,3.1-3.5,5.1-5.8c1.4,3.5,2.6,6.2,3.8,9.1
			c3,0,6.1,0,8.2,0c2.3,2.8,3.7,5.8,6.1,7.2c18.5,11.2,27.4,27.8,27.6,49.2c0.2,18.5,0,36.9,0,55.4c0,2.8,0,5.6,0,9.2
			c9.4,0,18.3,0,28.4,0c0,4,0,7.2,0,10.5c0,119.7,0,239.5,0.1,359.2c0,4.3-2.4,9.7,3.9,12.6c1,0.5,0.7,4.3,0.7,6.5
			c0.1,16.1,0,32.2,0,48.7c5.6,0,10.4,0,16.3,0c0-9.3-0.3-18.5,0.1-27.6c1.4-35.2,3-70.3,4.5-105.5c0.2-4.1,0-8.2,0.1-12.3
			c0.5-18.9,0.2-37.9,1.7-56.7c1.9-23.5,5.3-46.9,8.1-70.4c0-0.3,0.7-0.6,2.1-1.9c1.2,11.7,2.4,22.5,3.5,33.3c0.5,0,1-0.1,1.5-0.1
			c0-9.2-0.3-18.4,0.1-27.5c0.3-4.9,2.5-9.6,2.9-14.5c0.5-6.5-0.2-13,0-19.5c0.1-3.9,0.9-7.7,1.3-11.6c2.6-24.6,5-49.1,7.8-73.6
			c0.3-2.4,2.8-4.6,4.3-6.9c1.4,2.4,3.9,4.6,4.2,7.1c2.1,21.9,3.5,43.9,5.6,65.9c0.6,6,2.9,11.9,3.8,18c0.6,4.2,0.1,8.6,0.2,13
			c0.7,16.1,1.4,32.2,2.1,48.2c0.6,0.1,1.3,0.1,1.9,0.2c1.1-10.4,2.3-20.7,3.4-31.1c0.7,0,1.5,0,2.2,0c3.5,36.6,6.9,73.2,10.6,112
			c3-3.1,5-4.7,6.3-6.7c5.2-8.5,10.3-17.1,15.1-25.8c2.8-5,4.8-5.4,7.8-0.1c4.8,8.8,9.9,17.4,15.1,25.9c1.3,2.1,3.3,3.6,6.4,6.9
			c3.7-39.1,7.3-75.8,10.8-112.6c0.8,0,1.5,0,2.3,0c1.1,11,2.1,22,3.2,32.9c0.2,0,0.5,0,0.7,0c4.7-52.4,9.4-104.7,14.1-157.7
			c4.2,1.1,6.8,1.1,7.1,6.9c1.3,23.5,3.5,47,5.8,70.5c1,9.8,3.3,19.4,4.4,29.1c0.6,5.2-0.5,10.5-0.2,15.8
			c0.8,11.7,1.9,23.5,4.2,35.1c1-10.9,2-21.9,3-32.8c0.8,0,1.5,0,2.3,0c0.9,8.7,1.9,17.3,2.6,26c0.9,11,0.4,22.1,2.4,32.9
			c7,37.5,4.4,75.5,6.1,113.2c0,0.5,0.4,0.9,0.9,1.9c4.8,0,9.8,0,15.9,0c-0.6-6.7-1.5-13.3-1.6-20c-0.1-5,0.9-10,1-15
			c0.2-6.7,0.1-13.5,0.2-20.2c0.1-5.6,0.2-11.3,0.2-16.9c0-6,0.3-12.1,0-18.1c-0.3-5.3-1.8-10.5-1.8-15.7c0-5.7,1.8-11.4,1.8-17.1
			c0-6.2-1.5-12.4-1.6-18.7c-0.1-5,1-10,1.3-15c0.3-6,0.5-11.9,0.2-17.9c-0.1-1.2-3-2.3-3.7-2.8c1.3-2.1,3.5-4.2,3.7-6.4
			c0.1-1.7-2.4-3.6-4.2-5.9c2.3-0.3,5.3-0.6,9.1-1.1c-1.8-11.6,2.9-20.3,11.9-28.6c0.9-10.5,2-22.4,2.8-34.3
			c0.1-1.3-1.4-2.6-2.8-5.2c10.6,0,20.5,0,32.3,0c-9.8,4.2-19.6-2.2-28.6,6c4.9,0,8.1,0,11.4,0c0.9,10.5,1.4,21.2,2.7,31.7
			c0.8,6.5,7.3,6.4,11.8,7.3c5.4,1,11.2,0.2,17.7,0.2c0-7.5,0-14.6,0-21.8c2.9-0.5,5.1-0.9,6.8-1.2c1.2-12.4,2.3-24.2,3.3-35.9
			c3.2,0.4,6.3,0.9,9.3,1.3c0.4-0.7,0.7-1.4,1.1-2.1c-2.2-1.5-4.2-3.7-6.6-4.2c-3.1-0.8-6.6-0.3-9.9-0.3c-3,0-6,0-9-1.5
			c9.6,0,19.2,0,26.9,0c1.1,14.7,2.1,28.4,3.2,42.8c7.7-1.1,6.2,4.3,6.5,8.9c0.3,3.6-2.2,8.6,4.3,9.8c0.7,0.1,1.2,3,1.2,4.6
			c0.1,7.4,0.1,14.8,0.1,22.6c3.2,0.4,5.9,0.8,9.3,1.3c0,39.1,0,78,0,117.4c4.7,0,8.6,0,13.5,0c0-4.2,0-8.2,0-12.3
			c0-54.1-0.1-108.2,0.1-162.3c0-3.3,1.9-6.6,4.1-9.7c0-6.4,0-12.9,0-19.3c0-7.8-0.1-15.7,0-23.5c0.1-8.6,0.2-17.1,0.9-25.7
			c0.3-3.5,12.3-7.3,17-5c0-5.9,0-11.3,0-17.4c5.5,0,10,0,15.7,0c0-7.4-0.3-14.2,0.1-21c0.2-4.5-2.6-10.2,4.3-13
			c1.1-0.5,0.7-4.8,0.8-7.3c0.1-2.8,0-5.6,0-8.6c3.2,0,5.9,0,8.9,0c0,3.4-0.4,7,0.1,10.4c0.4,2.5,2.4,4.7,3.4,7.2
			c0.7,1.7,1.4,3.7,1.5,5.5c0.1,8.7,0.1,17.4,0.1,26.4c3.1,0.2,5.5,0.4,8,0.5c-0.3,0.7-0.6,1.3-0.9,2c3.9,1.8,7.9,3.6,13.2,6.1
			c0,0.7,0.2,3.1,0.3,5.6c0.1,1.5-0.3,4.1,0.4,4.4c9.6,4.8,4.9,13.4,4.9,20.1c0.4,100.3,0.3,200.5,0.3,300.8c0,2.8,0,5.5,0,8.3
			c0.7,0.4,1.3,0.7,2,1.1c1.3-1.4,3.3-2.6,3.8-4.3c0.7-2.1,0.2-4.6,0.2-6.9c0-51.5,0-103.1,0-154.6c0-3.3,0-6.5,0-10.1
			c3.9-0.2,6.9-0.4,10.4-0.6c0.3-5.1,3.2-10.1-3.4-14c-1.6-0.9-0.7-6-1-9.7c5.7-0.3,10.5-0.5,16-0.8c0-3.2,0-5.9,0-8.7
			c0-35.9-0.1-71.8,0.1-107.7c0-4.2-2.4-9.2,4-12.5c1.9-1,1-7.5,1.5-12c3.4-0.3,6.6-0.6,9.9-0.8c-0.3-0.5-0.5-0.9-0.8-1.4
			c3.3-2.1,6.7-4.1,11.5-7.1c0-6.3-0.3-14.4,0.2-22.5c0.1-2.6,2.6-5,3.4-7.7c0.8-2.6,1-5.4,1.2-8.1c0.2-3,0-6.1,0-8.9
			c3.2,0,6,0,9.1,0c0,3.2-0.5,6.7,0.1,9.9c0.5,2.7,2.4,5.2,3.4,7.9c0.7,1.8,1.2,3.8,1.2,5.7c0.1,8.4,0.1,16.8,0.1,26
			c5.2,0.2,9.7,0.4,15.1,0.7c0.3,5.5,0.6,11,0.8,14.7c4.7,1.5,8.4,3,12.1,3.8c6.4,1.3,5.5,6.1,5.5,10.6c0,13.4,0.2,26.8,0.2,40.2
			c0,6.7-0.1,13.4-0.1,20.2c0,0.9,0.4,2.6,0.8,2.7c5.8,1.4,3.7,6.1,3.7,9.5c0.1,55.6,0.1,111.3,0.1,166.9c0,2.8,0,5.5,0,9
			c8.3,0,15.9,0,24.3,0c0,22.9,0,45,0,67.8c6.5-0.2,7.2,3.2,7.2,8.2c-0.3,27.4-0.1,54.9-0.1,82.3c0,3.6,0,7.1,0,11.5
			c8.4,0,16.2,0,24.7,0c0,43.7,0,86.6,0,130c-650.6,0-1301.2,0-1952.3,0c0-42.9,0-85.6,0-129.2c8.9,0,17.9,0,26.7,0
			c3.3-9.9,2.2-49.6-1.6-54.3c2.7-0.4,5.1-0.8,8.4-1.3c0.2-2.3,0.5-4.7,0.5-7.2c0-57.4,0.2-114.9-0.2-172.3c0-6.4-3.6-12.7-5.7-19.7
			c9.4,0.1,11.7-5.6,11.9-14.4c0.8-32.3,2.3-64.5,3.6-96.8c0.1-3.8,0.4-7.7,1.2-11.5c1.2,35.7,2.5,71.5,3.6,107.2
			c0.4,12.4,0.2,12.4,10.5,15.4c-1.5,10.5-4.1,20.7-4.2,31c-0.4,53.1-0.2,106.2-0.2,159.2c0,2.8,0,5.6,0,9c20.2,0,39.8,0,59.3,0
			c2.5-13.3,1.4-39.8-2.3-44.6c16.5,0,32.6,0,49.9,0c0-9.7,0-18.8,0-27.9c0-2.7,0.4-5.4,1.6-8c-3.4-12.8-1.3-18,10.2-24.4
			c1.8-1,2.6-4,3.4-5.1c3.6,2.8,8,5.8,11.7,9.4c6,5.8,5.8,12.6,1.7,20.1c1.5,1.1,3,2.3,3.9,3c-0.4,5.1-0.8,9.7-1.2,15.5
			c11.5-0.6,22.1-1.2,32.7-1.8c6.9-0.4,13.8-1.2,20.7-1.3c4.5-0.1,6.1-2,6.9-6.2c5.5-26.8,20.2-46,46.4-55.6
			c5.2-1.9,10.4-3.7,17.4-6.2c0-13.7,0-28.9,0-44.1c1,0,1.9,0,2.9,0c0,15,0,30.1,0,44.6c35.2,8.4,57.6,27.8,64.3,63
			c0.3,1.8,2.8,4.4,4.5,4.5c8.4,0.8,16.8,1,26.3,1.4c0-3.6,0-6.5,0-9.5c0-74.9,0-149.7,0.1-224.6c0-3.1,0.6-6.8,2.4-9.2
			c8.5-11.5,17.5-22.7,27.4-35.4c0,8.4,0,15.3,0,24.1c7.2,0,13.5,0,20.4,0c0-8.5,0-15.3,0-24.4c10.5,13.4,19.8,25.1,28.8,37.1
			c1.3,1.8,1.4,4.9,1.4,7.3c0.1,80.8,0.2,161.5-0.2,242.3c0,7.7,1.9,10.2,9.2,9.3c2-0.3,4.1,0.1,6.9,0.7c-7.6,1.9-5.9,7.4-5.9,12.2
			c0,21.5,0,43.1,0,64.6c0,2.5,0,5,0,7.8c5.2,0,9.7,0,15,0c0-22,0-43.4,0-65.7c6,0,12,0,18.6,0c0.2-3.3,0.4-5.8,0.4-8.3
			c0-30-0.1-60,0.2-90c0-3.4,2.6-6.7,4.9-9.6c3.2-19.6,1.2-38.7-11.3-55.7c0.8-0.3,1.5-0.7,2.3-1c3.4,6.2,6.7,12.4,10.4,19.2
			c1.3-3.6,2.1-6.1,3-8.5c0.7,0.2,1.5,0.4,2.2,0.6c0.2,2.4,0.4,4.9,0.6,7.9c2,0.6,4.3,1.4,8.1,2.6c-3.6-5.9-6.3-10.4-9.1-15
			c0.4-0.3,0.8-0.6,1.2-0.9c1.5,1.9,3,3.8,4.5,5.8c1.5,2.1,2.9,4.2,4.3,6.3c2-1.4,3.8-2.6,5.6-3.8c0.4,1.7,0.3,3.9,1.4,5
			c1.5,1.7,4.8,4.2,5.7,3.6c7.7-4.6,7.5,0.2,7.2,5.5c-0.1,1.9-0.2,3.9-0.3,5.4c-2.2-3.3-4.4-6.6-6.6-10c-1.4,1-2.8,2.1-4.2,3.1
			c0,2.1-0.1,4.2,0,6.2c0.4,6.5,0.9,13.1,1.3,19.6c0,0.7-0.6,1.7-0.3,2.2c10.3,16.6,3.2,34.8,4.6,52.1c1.3,16.5,0.3,33.2,0.3,51.3
			c9.6-5.3,18.4-9.7,26.8-14.9c3.6-2.2,6.1-1.9,9.6,0.1c10.4,6.1,20.8,12.1,31.5,17.6c4.1,2.1,8.9,2.8,13.4,4.2
			c0.8-0.7,1.6-1.4,2.5-2.1c-1.7-4.8-3.4-9.5-5.3-14.5c2.9-4.3,13-0.5,12.9-10c0,0,0.5-0.2,1-0.2c13.9-0.3,13.9-0.3,13.8-14.2
			c0-3.6,0.4-7.2,0-10.8c-0.4-3.2-1.6-6.3-2.5-9.9c19.1-6.7,38.5-13.8,58.2-20.3c6.5-2.1,8.7-5.5,8.6-12.2
			c-0.4-18.2-0.2-36.4-0.2-54.5C1138.5,1211.2,1143.7,1218.8,1143.2,1227.2z"/>
	</g>
	<g>
		<g>
			
				<linearGradient id="SVGID_12_" gradientUnits="userSpaceOnUse" x1="-288.2276" y1="776.224" x2="54.6971" y2="776.224" gradientTransform="matrix(0.9474 -0.3202 0.3202 0.9474 453.6159 757.4885)">
				<stop  offset="0.2957" style="stop-color:#FEB01F"/>
				<stop  offset="0.6061" style="stop-color:#FF9D13"/>
				<stop  offset="1" style="stop-color:#FF8001"/>
			</linearGradient>
			<path class="st9" d="M747,1573.4c-3.6,1.2-7.4,1.8-11.2,1.7l-290.8-7.6c-8.2-0.2-15.9-3.5-21.7-9.2c-6-5.9-9.1-13.8-8.9-22.1
				l0.6-21c0.3-12.6,8.8-23.8,21-28c3.6-1.2,7.4-1.8,11.2-1.7l290.8,7.6c8.2,0.2,15.9,3.5,21.7,9.2c6,5.9,9.1,13.8,8.9,22.1l-0.5,21
				C767.7,1558,759.3,1569.2,747,1573.4z"/>
			
				<linearGradient id="SVGID_13_" gradientUnits="userSpaceOnUse" x1="-273.9106" y1="776.2235" x2="40.3804" y2="776.2235" gradientTransform="matrix(0.9474 -0.3202 0.3202 0.9474 453.6159 757.4885)">
				<stop  offset="0.2957" style="stop-color:#FEB01F"/>
				<stop  offset="0.6061" style="stop-color:#FF9D13"/>
				<stop  offset="1" style="stop-color:#FF8001"/>
			</linearGradient>
			<path class="st10" d="M753.8,1545c-0.2,8.9-8.1,16-17.5,15.7l-290.8-7.6c-9.4-0.2-16.9-7.7-16.7-16.6l0.6-21
				c0.2-8.9,8.1-16,17.5-15.7l290.8,7.6c9.4,0.2,16.9,7.7,16.7,16.6L753.8,1545z"/>
			
				<rect x="622.3" y="1463.7" transform="matrix(2.619588e-02 -0.9997 0.9997 2.619588e-02 -904.4162 2134.842)" class="st11" width="42.6" height="135.9"/>
			
				<rect x="464.6" y="1492.2" transform="matrix(2.620193e-02 -0.9997 0.9997 2.620193e-02 -1053.2981 1973.7646)" class="st11" width="43.7" height="70.6"/>
		</g>
		<g>
			
				<linearGradient id="SVGID_14_" gradientUnits="userSpaceOnUse" x1="-222.3" y1="716.7988" x2="120.6249" y2="716.7988" gradientTransform="matrix(0.9474 -0.3202 0.3202 0.9474 453.6159 757.4885)">
				<stop  offset="0.2957" style="stop-color:#FEB01F"/>
				<stop  offset="0.6061" style="stop-color:#FF9D13"/>
				<stop  offset="1" style="stop-color:#FF8001"/>
			</linearGradient>
			<path class="st12" d="M790.5,1496c-3.6,1.2-7.4,1.8-11.2,1.7l-290.8-7.6c-8.2-0.2-15.9-3.5-21.7-9.2c-6-5.9-9.1-13.8-8.9-22.1
				l0.6-21c0.3-12.6,8.8-23.8,21-28c3.6-1.2,7.4-1.8,11.2-1.7l290.8,7.6c8.2,0.2,15.9,3.5,21.7,9.2c6,5.9,9.1,13.8,8.9,22.1l-0.6,21
				C811.2,1480.6,802.7,1491.8,790.5,1496z"/>
			
				<linearGradient id="SVGID_15_" gradientUnits="userSpaceOnUse" x1="-207.9828" y1="716.7988" x2="106.3081" y2="716.7988" gradientTransform="matrix(0.9474 -0.3202 0.3202 0.9474 453.6159 757.4885)">
				<stop  offset="0.2957" style="stop-color:#FEB01F"/>
				<stop  offset="0.6061" style="stop-color:#FF9D13"/>
				<stop  offset="1" style="stop-color:#FF8001"/>
			</linearGradient>
			<path class="st13" d="M797.2,1467.6c-0.2,8.9-8.1,16-17.5,15.7l-290.8-7.6c-9.4-0.2-16.9-7.7-16.7-16.6l0.6-21
				c0.2-8.9,8.1-16,17.5-15.7l290.8,7.6c9.4,0.2,16.9,7.7,16.7,16.6L797.2,1467.6z"/>
			
				<rect x="665.7" y="1386.3" transform="matrix(2.620401e-02 -0.9997 0.9997 2.620401e-02 -784.7442 2102.8652)" class="st11" width="42.6" height="135.9"/>
			
				<rect x="508" y="1414.8" transform="matrix(2.620213e-02 -0.9997 0.9997 2.620213e-02 -933.6217 1941.8008)" class="st11" width="43.7" height="70.6"/>
		</g>
		<g>
			
				<linearGradient id="SVGID_16_" gradientUnits="userSpaceOnUse" x1="-223.1744" y1="634.0574" x2="119.7501" y2="634.0574" gradientTransform="matrix(0.9474 -0.3202 0.3202 0.9474 453.6159 757.4885)">
				<stop  offset="0.2957" style="stop-color:#FEB01F"/>
				<stop  offset="0.6061" style="stop-color:#FF9D13"/>
				<stop  offset="1" style="stop-color:#FF8001"/>
			</linearGradient>
			<path class="st14" d="M763.1,1417.9c-3.6,1.2-7.4,1.8-11.2,1.7l-290.8-7.6c-8.2-0.2-15.9-3.5-21.7-9.2c-6-5.9-9.1-13.8-8.9-22.1
				l0.6-21c0.3-12.6,8.8-23.8,21-28c3.6-1.2,7.4-1.8,11.2-1.7l290.8,7.6c8.2,0.2,15.9,3.5,21.7,9.2c6,5.9,9.1,13.8,8.9,22.1l-0.6,21
				C783.8,1402.5,775.4,1413.7,763.1,1417.9z"/>
			
				<linearGradient id="SVGID_17_" gradientUnits="userSpaceOnUse" x1="-208.8574" y1="634.0574" x2="105.4334" y2="634.0574" gradientTransform="matrix(0.9474 -0.3202 0.3202 0.9474 453.6159 757.4885)">
				<stop  offset="0.2957" style="stop-color:#FEB01F"/>
				<stop  offset="0.6061" style="stop-color:#FF9D13"/>
				<stop  offset="1" style="stop-color:#FF8001"/>
			</linearGradient>
			<path class="st15" d="M769.9,1389.5c-0.2,8.9-8.1,16-17.5,15.7l-290.8-7.6c-9.4-0.2-16.9-7.7-16.7-16.6l0.6-21
				c0.2-8.9,8.1-16,17.5-15.7l290.8,7.6c9.4,0.2,16.9,7.7,16.7,16.6L769.9,1389.5z"/>
			
				<rect x="638.4" y="1308.2" transform="matrix(2.620412e-02 -0.9997 0.9997 2.620412e-02 -733.2681 1999.4902)" class="st11" width="42.6" height="135.9"/>
			
				<rect x="480.7" y="1336.7" transform="matrix(2.618629e-02 -0.9997 0.9997 2.618629e-02 -882.1381 1838.4465)" class="st11" width="43.7" height="70.6"/>
		</g>
		<g>
			
				<linearGradient id="SVGID_18_" gradientUnits="userSpaceOnUse" x1="-133.565" y1="580.0494" x2="209.3599" y2="580.0494" gradientTransform="matrix(0.9474 -0.3202 0.3202 0.9474 453.6159 757.4885)">
				<stop  offset="0.2957" style="stop-color:#FEB01F"/>
				<stop  offset="0.6061" style="stop-color:#FF9D13"/>
				<stop  offset="1" style="stop-color:#FF8001"/>
			</linearGradient>
			<path class="st16" d="M830.8,1338c-3.6,1.2-7.4,1.8-11.2,1.7l-290.8-7.6c-8.2-0.2-15.9-3.5-21.7-9.2c-6-5.9-9.1-13.8-8.9-22.1
				l0.6-21c0.3-12.6,8.8-23.8,21-28c3.6-1.2,7.4-1.8,11.2-1.7l290.8,7.6c8.2,0.2,15.9,3.5,21.7,9.2c6,5.9,9.1,13.8,8.9,22.1l-0.5,21
				C851.4,1322.6,843,1333.9,830.8,1338z"/>
			
				<linearGradient id="SVGID_19_" gradientUnits="userSpaceOnUse" x1="-119.2474" y1="580.0489" x2="195.043" y2="580.0489" gradientTransform="matrix(0.9474 -0.3202 0.3202 0.9474 453.6159 757.4885)">
				<stop  offset="0.2957" style="stop-color:#FEB01F"/>
				<stop  offset="0.6061" style="stop-color:#FF9D13"/>
				<stop  offset="1" style="stop-color:#FF8001"/>
			</linearGradient>
			<path class="st17" d="M837.5,1309.7c-0.2,8.9-8.1,16-17.5,15.7l-290.8-7.6c-9.4-0.2-16.9-7.7-16.7-16.6l0.6-21
				c0.2-8.9,8.1-16,17.5-15.7l290.8,7.6c9.4,0.2,16.9,7.7,16.7,16.6L837.5,1309.7z"/>
			
				<rect x="706" y="1228.3" transform="matrix(2.620412e-02 -0.9997 0.9997 2.620412e-02 -587.6041 1989.302)" class="st11" width="42.6" height="135.9"/>
			
				<rect x="548.3" y="1256.8" transform="matrix(2.620355e-02 -0.9997 0.9997 2.620355e-02 -736.4813 1828.2341)" class="st11" width="43.7" height="70.6"/>
		</g>
		<g>
			
				<linearGradient id="SVGID_20_" gradientUnits="userSpaceOnUse" x1="-159.8622" y1="485.0173" x2="183.0629" y2="485.0173" gradientTransform="matrix(0.9474 -0.3202 0.3202 0.9474 453.6159 757.4885)">
				<stop  offset="0.2957" style="stop-color:#FEB01F"/>
				<stop  offset="0.6061" style="stop-color:#FF9D13"/>
				<stop  offset="1" style="stop-color:#FF8001"/>
			</linearGradient>
			<path class="st18" d="M775.4,1256.4c-3.6,1.2-7.4,1.8-11.2,1.7l-290.8-7.6c-8.2-0.2-15.9-3.5-21.7-9.2c-6-5.9-9.1-13.8-8.9-22.1
				l0.6-21c0.3-12.6,8.8-23.8,21-28c3.6-1.2,7.4-1.8,11.2-1.7l290.8,7.6c8.2,0.2,15.9,3.5,21.7,9.2c6,5.9,9.1,13.8,8.9,22.1l-0.6,21
				C796.1,1241,787.7,1252.3,775.4,1256.4z"/>
			
				<linearGradient id="SVGID_21_" gradientUnits="userSpaceOnUse" x1="-145.545" y1="485.0179" x2="168.7463" y2="485.0179" gradientTransform="matrix(0.9474 -0.3202 0.3202 0.9474 453.6159 757.4885)">
				<stop  offset="0.2957" style="stop-color:#FEB01F"/>
				<stop  offset="0.6061" style="stop-color:#FF9D13"/>
				<stop  offset="1" style="stop-color:#FF8001"/>
			</linearGradient>
			<path class="st19" d="M782.1,1228c-0.2,8.9-8.1,16-17.5,15.7l-290.8-7.6c-9.4-0.2-16.9-7.7-16.7-16.6l0.6-21
				c0.2-8.9,8.1-16,17.5-15.7l290.8,7.6c9.4,0.2,16.9,7.7,16.7,16.6L782.1,1228z"/>
			
				<rect x="650.6" y="1146.7" transform="matrix(2.621236e-02 -0.9997 0.9997 2.621236e-02 -559.9179 1854.4944)" class="st11" width="42.6" height="135.9"/>
			
				<rect x="493" y="1175.2" transform="matrix(2.618587e-02 -0.9997 0.9997 2.618587e-02 -708.7817 1693.4583)" class="st11" width="43.7" height="70.6"/>
		</g>
		<g>
			
				<linearGradient id="SVGID_22_" gradientUnits="userSpaceOnUse" x1="-86.0757" y1="427.5097" x2="256.8492" y2="427.5097" gradientTransform="matrix(0.9474 -0.3202 0.3202 0.9474 453.6159 757.4885)">
				<stop  offset="0.2957" style="stop-color:#FEB01F"/>
				<stop  offset="0.6061" style="stop-color:#FF9D13"/>
				<stop  offset="1" style="stop-color:#FF8001"/>
			</linearGradient>
			<path class="st20" d="M826.9,1178.3c-3.6,1.2-7.4,1.8-11.2,1.7l-290.8-7.6c-8.2-0.2-15.9-3.5-21.7-9.2c-6-5.9-9.1-13.8-8.9-22.1
				l0.6-21c0.3-12.6,8.8-23.8,21-28c3.6-1.2,7.4-1.8,11.2-1.7l290.8,7.6c8.2,0.2,15.9,3.5,21.7,9.2c6,5.9,9.1,13.8,8.9,22.1l-0.6,21
				C847.6,1162.9,839.1,1174.1,826.9,1178.3z"/>
			
				<linearGradient id="SVGID_23_" gradientUnits="userSpaceOnUse" x1="-71.7585" y1="427.5095" x2="242.5325" y2="427.5095" gradientTransform="matrix(0.9474 -0.3202 0.3202 0.9474 453.6159 757.4885)">
				<stop  offset="0.2957" style="stop-color:#FEB01F"/>
				<stop  offset="0.6061" style="stop-color:#FF9D13"/>
				<stop  offset="1" style="stop-color:#FF8001"/>
			</linearGradient>
			<path class="st21" d="M833.6,1149.9c-0.2,8.9-8.1,16-17.5,15.7l-290.8-7.6c-9.4-0.2-16.9-7.7-16.7-16.6l0.6-21
				c0.2-8.9,8.1-16,17.5-15.7l290.8,7.6c9.4,0.2,16.9,7.7,16.7,16.6L833.6,1149.9z"/>
			
				<rect x="702.1" y="1068.6" transform="matrix(2.621238e-02 -0.9997 0.9997 2.621238e-02 -431.6933 1829.9049)" class="st11" width="42.6" height="135.9"/>
			
				<rect x="544.5" y="1097.1" transform="matrix(2.621798e-02 -0.9997 0.9997 2.621798e-02 -580.5729 1668.8301)" class="st11" width="43.7" height="70.6"/>
		</g>
	</g>
	<g>
		<g>
			
				<linearGradient id="SVGID_24_" gradientUnits="userSpaceOnUse" x1="2872.6252" y1="2033.9928" x2="3019.0408" y2="2033.9928" gradientTransform="matrix(0.9983 5.900000e-02 -5.900000e-02 0.9983 -934.644 -685.1152)">
				<stop  offset="0.1047" style="stop-color:#96CF37"/>
				<stop  offset="0.9543" style="stop-color:#237926"/>
			</linearGradient>
			<path class="st22" d="M1956.8,1565.4c0,0-18.4-78.6-141.2-92.4C1815.6,1473,1845.6,1549.2,1956.8,1565.4z"/>
			
				<linearGradient id="SVGID_25_" gradientUnits="userSpaceOnUse" x1="2874.7297" y1="2028.5873" x2="2977.2607" y2="2028.5873" gradientTransform="matrix(0.9987 5.270000e-02 -5.270000e-02 0.9987 -908.0648 -648.423)">
				<stop  offset="0.1047" style="stop-color:#237926"/>
				<stop  offset="0.9543" style="stop-color:#144A1B"/>
			</linearGradient>
			<path class="st23" d="M1857.7,1498c0,0,6.7,3.5,16.3,9.3c2.4,1.4,5,3,7.8,4.7c2.7,1.7,5.6,3.5,8.6,5.4c3,1.9,6,3.8,9.1,5.9
				c3.1,2,6.2,4.1,9.3,6.2c3.1,2.1,6.2,4.2,9.2,6.3c3.1,2.1,6,4.2,8.9,6.2c2.9,2,5.6,4,8.2,6c2.6,1.9,5,3.7,7.3,5.4
				c4.5,3.4,8.1,6.4,10.7,8.5c1.3,1.1,2.2,1.9,2.9,2.6c0.6,0.6,1,0.9,1,0.9s-0.4-0.3-1.1-0.8c-0.7-0.5-1.8-1.2-3.2-2
				c-2.8-1.7-6.8-4.2-11.6-7.1c-2.4-1.5-5-3.1-7.7-4.8c-2.7-1.7-5.6-3.5-8.5-5.5c-2.9-1.9-6-3.8-9.1-5.9c-3.1-2-6.2-4.1-9.3-6.2
				c-3.1-2.1-6.2-4.2-9.2-6.3c-3.1-2.1-6-4.2-8.9-6.2c-2.9-2-5.6-4-8.3-5.9c-2.6-1.9-5.1-3.7-7.3-5.4
				C1863.5,1502.8,1857.7,1498,1857.7,1498z"/>
		</g>
		<g>
			<g>
				
					<linearGradient id="SVGID_26_" gradientUnits="userSpaceOnUse" x1="1823.5273" y1="1372.0634" x2="2013.0051" y2="1372.0634" gradientTransform="matrix(-0.9676 -0.2525 -0.2525 0.9676 4231.5215 692.1063)">
					<stop  offset="0.1047" style="stop-color:#96CF37"/>
					<stop  offset="0.9543" style="stop-color:#237926"/>
				</linearGradient>
				<path class="st24" d="M1923.6,1564c0,0,54.1-89.4,210.8-57.3C2134.3,1506.7,2067,1588.5,1923.6,1564z"/>
				
					<linearGradient id="SVGID_27_" gradientUnits="userSpaceOnUse" x1="1842.0189" y1="1364.4457" x2="1974.6969" y2="1364.4457" gradientTransform="matrix(-0.966 -0.2587 -0.2587 0.966 4194.5156 717.955)">
					<stop  offset="0.1047" style="stop-color:#237926"/>
					<stop  offset="0.9543" style="stop-color:#144A1B"/>
				</linearGradient>
				<path class="st25" d="M2072.5,1520.7c0,0-9.6,1.7-23.8,5c-3.6,0.8-7.4,1.7-11.4,2.7c-4.1,1-8.3,2-12.7,3.2
					c-4.4,1.2-9,2.3-13.6,3.6c-4.6,1.3-9.3,2.6-13.9,3.9c-4.7,1.4-9.3,2.7-13.9,4.1c-4.6,1.3-9.1,2.8-13.4,4.1
					c-4.3,1.3-8.5,2.7-12.5,4c-4,1.3-7.7,2.6-11.1,3.8c-6.9,2.4-12.6,4.6-16.5,6.2c-2,0.8-3.5,1.5-4.5,2c-1,0.5-1.6,0.8-1.6,0.8
					s0.6-0.2,1.7-0.5c1.1-0.3,2.7-0.7,4.8-1.2c4.1-1,10-2.4,17.1-4.2c3.5-0.9,7.4-1.8,11.4-2.9c4-1,8.3-2.1,12.7-3.3
					c4.4-1.2,8.9-2.3,13.5-3.7c4.6-1.3,9.3-2.6,13.9-3.9c4.7-1.3,9.3-2.7,13.9-4c4.6-1.3,9.1-2.8,13.4-4.1c4.4-1.3,8.5-2.7,12.5-3.9
					c4-1.2,7.7-2.5,11.2-3.6C2063.5,1524.2,2072.5,1520.7,2072.5,1520.7z"/>
			</g>
			<g>
				
					<linearGradient id="SVGID_28_" gradientUnits="userSpaceOnUse" x1="1933.1362" y1="1523.5482" x2="2116.2588" y2="1523.5482" gradientTransform="matrix(-0.9716 0.2365 0.2365 0.9716 3629.2476 -465.4131)">
					<stop  offset="0.1047" style="stop-color:#237926"/>
					<stop  offset="0.9543" style="stop-color:#144A1B"/>
				</linearGradient>
				<path class="st26" d="M1945.9,1566.7c0,0-0.2-100,152.9-146C2098.8,1420.7,2083.8,1520.3,1945.9,1566.7z"/>
				
					<linearGradient id="SVGID_29_" gradientUnits="userSpaceOnUse" x1="1950.4535" y1="1519.1646" x2="2083.1372" y2="1519.1646" gradientTransform="matrix(-0.9731 0.2302 0.2302 0.9731 3608.5471 -425.9096)">
					<stop  offset="0.1047" style="stop-color:#237926"/>
					<stop  offset="0.9543" style="stop-color:#144A1B"/>
				</linearGradient>
				<path class="st27" d="M2051,1462.3c0,0-7.6,6-18.6,15.7c-2.7,2.4-5.7,5-8.8,7.8c-3.1,2.8-6.4,5.7-9.7,8.8
					c-3.3,3.1-6.8,6.3-10.2,9.6c-3.4,3.3-6.9,6.7-10.4,10c-3.5,3.4-6.9,6.8-10.3,10.2c-3.4,3.3-6.7,6.7-9.9,10
					c-3.2,3.2-6.2,6.4-9.1,9.5c-2.9,3-5.6,5.9-8,8.6c-4.9,5.4-8.9,10-11.6,13.3c-1.4,1.6-2.4,3-3,3.9c-0.7,0.9-1,1.4-1,1.4
					s0.4-0.4,1.2-1.2c0.8-0.8,2.1-1.9,3.6-3.3c3.2-2.8,7.7-6.9,13.1-11.8c2.7-2.4,5.6-5.1,8.7-7.9c3.1-2.8,6.3-5.8,9.6-8.9
					c3.3-3.1,6.8-6.3,10.2-9.6c3.4-3.3,6.9-6.7,10.4-10c3.5-3.4,6.9-6.8,10.3-10.2c3.4-3.3,6.7-6.7,9.9-9.9c3.2-3.2,6.3-6.4,9.1-9.4
					c2.9-3,5.6-5.9,8.1-8.5C2044.7,1469.7,2051,1462.3,2051,1462.3z"/>
			</g>
			<g>
				
					<linearGradient id="SVGID_30_" gradientUnits="userSpaceOnUse" x1="1671.7642" y1="1443.9316" x2="1860.8976" y2="1443.9316" gradientTransform="matrix(-0.7299 -0.6835 -0.6835 0.7299 4221.7666 1597.5968)">
					<stop  offset="0.1047" style="stop-color:#96CF37"/>
					<stop  offset="0.9543" style="stop-color:#237926"/>
				</linearGradient>
				<path class="st28" d="M1957.3,1570.1c0,0,61-116.9,61-141c0-24-7.9-42.6-28.3-34.4c-20.4,8.3-27.1,8-18.9-9.8
					c8.2-17.8,3.7-67-28.2-64.5c-31.9,2.5-25.2,35.9-22.8,49.9c2.4,14,6.6,33.4-3.1,25.8c-9.7-7.7-20.3-17.4-24.2-5.7
					c-3.9,11.7,19.2,30.5,27,47.7c7.8,17.2,4.5,26.7-6.6,19.1c-11.1-7.6-36.4-3.2-28.6,12.6c7.8,15.7,52,98.7,52,98.7L1957.3,1570.1
					z"/>
				
					<linearGradient id="SVGID_31_" gradientUnits="userSpaceOnUse" x1="1681.4324" y1="1463.6068" x2="1807.6594" y2="1463.6068" gradientTransform="matrix(-0.7299 -0.6835 -0.6835 0.7299 4221.7666 1597.5968)">
					<stop  offset="0.1047" style="stop-color:#237926"/>
					<stop  offset="0.9543" style="stop-color:#144A1B"/>
				</linearGradient>
				<path class="st29" d="M1948,1560.2c0.6-2.5,1-5.7,1.7-9.2c0.7-3.6,1-7.6,1.6-12.1c0.6-4.4,0.9-9.2,1.3-14.3
					c0.4-5.1,0.6-10.5,0.9-16c0-0.5,0-1.1,0.1-1.6c1.3-1.4,3.1-3.4,5.2-5.9c2.1-2.4,4.4-5.3,6.8-8.4c1.2-1.6,2.5-3.2,3.7-4.9
					c1.2-1.7,2.5-3.4,3.7-5.1c1.2-1.7,2.4-3.5,3.6-5.2c1.2-1.7,2.3-3.4,3.4-5.1c2.2-3.3,4.2-6.4,5.8-9.2c3.3-5.4,5.2-9.3,5.2-9.3
					s-3,3-7.1,7.9c-2.1,2.4-4.4,5.3-6.8,8.4c-1.2,1.6-2.5,3.2-3.7,4.9c-1.2,1.7-2.5,3.4-3.7,5.1c-1.2,1.7-2.4,3.4-3.6,5.2
					c-1.2,1.7-2.3,3.4-3.4,5.1c-2.2,3.3-4.2,6.4-5.8,9.2c-1.3,2.2-2.4,4.1-3.3,5.7c0.2-4.6,0.3-9.2,0.4-13.9
					c0.1-5.8,0.1-11.8,0.2-17.7c0-11.9-0.2-23.7-0.5-34.8c-0.3-11.1-0.8-21.5-1.3-30.4c-0.5-8.9-1.1-16.3-1.5-21.4
					c-0.4-5.2-0.7-8.1-0.7-8.1s0,3-0.1,8.2c0,5.2,0,12.6-0.1,21.5c0,13.1,0,29.4,0.1,46.6c-0.1-0.2-0.1-0.4-0.2-0.6
					c-0.7-2.2-1.7-4.7-2.8-7.4c-1.1-2.7-2.3-5.5-3.7-8.3c-1.3-2.8-2.7-5.6-4.1-8.1c-1.4-2.6-2.7-4.9-3.9-6.9c-2.4-4-4.4-6.5-4.4-6.5
					s0.7,3.1,2.2,7.5c0.7,2.2,1.7,4.7,2.8,7.4c1.1,2.7,2.3,5.5,3.7,8.3c1.3,2.8,2.7,5.6,4.1,8.1c1.4,2.5,2.7,4.9,4,6.9
					c0.9,1.4,1.6,2.6,2.3,3.6c0,4.8,0,9.6,0,14.5c0,5.9-0.1,11.8-0.1,17.6c-0.1,5.8-0.1,11.6-0.2,17.1c-0.2,5.5-0.1,10.9-0.4,16
					c-0.2,5.1-0.3,9.9-0.6,14.3c-0.1,2.2-0.2,4.3-0.4,6.4c-0.1,2-0.2,3.9-0.4,5.7c-0.4,3.6-0.6,6.7-0.9,9.3
					c-0.8,5.1-1.2,8.1-1.2,8.1S1946.7,1565.2,1948,1560.2z"/>
				
					<linearGradient id="SVGID_32_" gradientUnits="userSpaceOnUse" x1="1702.9774" y1="1501.1117" x2="1749.3751" y2="1501.1117" gradientTransform="matrix(-0.7299 -0.6835 -0.6835 0.7299 4221.7666 1597.5968)">
					<stop  offset="0.1047" style="stop-color:#237926"/>
					<stop  offset="0.9543" style="stop-color:#144A1B"/>
				</linearGradient>
				<path class="st30" d="M1921.1,1495.3c0,0,1.3,2.7,3.7,6.4c1.2,1.9,2.6,4,4.2,6.2c1.6,2.2,3.4,4.6,5.2,6.8
					c1.8,2.3,3.8,4.5,5.6,6.5c1.8,2,3.6,3.9,5.2,5.4c3.2,3.1,5.5,4.9,5.5,4.9s-1.3-2.7-3.7-6.4c-1.2-1.9-2.6-4-4.2-6.2
					c-1.6-2.2-3.4-4.6-5.2-6.8c-1.9-2.3-3.8-4.5-5.6-6.5c-1.9-2-3.6-3.9-5.2-5.4C1923.4,1497.1,1921.1,1495.3,1921.1,1495.3z"/>
			</g>
		</g>
	</g>
	<g>
		<g>
			<linearGradient id="SVGID_33_" gradientUnits="userSpaceOnUse" x1="134.8464" y1="1409.724" x2="397.3453" y2="1409.724">
				<stop  offset="0" style="stop-color:#FFFFFF"/>
				<stop  offset="1" style="stop-color:#9ECBE1"/>
			</linearGradient>
			<path class="st31" d="M379.2,1552c0,0,27.8-47.3,14.5-74.7c-13.4-27.3-41.7-22-43.3-73.3c-1.7-51.4,12-58.7-1.6-84.2
				c-13.6-25.6-58.3-64.5-117.8-55.8c-59.8,8.8-96.1,100.5-96.1,100.5s50.5-60.9,77.6-40.9c27.1,20,24.5,23.4,24,43.4
				c-0.5,20,31.4,51.7,50.5,67c19.2,15.3,3.3,26.4,6.1,68.8C296,1545,343.2,1567.3,379.2,1552z"/>
		</g>
		<g>
			<linearGradient id="SVGID_34_" gradientUnits="userSpaceOnUse" x1="427.0887" y1="1341.4896" x2="618.9201" y2="1341.4896">
				<stop  offset="0" style="stop-color:#2F59A5"/>
				<stop  offset="1" style="stop-color:#D5E8F2"/>
			</linearGradient>
			<path class="st32" d="M430.2,1537.5c0,0,3.2-39.1-1.5-86.6c-4.7-47.5,0.3-51.2,28.2-97.8c27.9-46.6,17.6-68.7,34.4-104.7
				c16.7-36,9.4-25.9,43.3-53.8c33.9-27.9,72.5-23.1,84.4-60.9c0,0-11.9,78.1-24.1,126.7c-12.2,48.7-14.4,69.8-40.5,91.5
				c-26.2,21.6-34.1,33.4-41,87.6c-6.9,54.3-47.3,100-61.1,107.8C438.4,1555.1,430.2,1537.5,430.2,1537.5z"/>
		</g>
		<g>
			<linearGradient id="SVGID_35_" gradientUnits="userSpaceOnUse" x1="403.6812" y1="1596.9103" x2="403.6812" y2="1258.693">
				<stop  offset="0" style="stop-color:#FFFFFF"/>
				<stop  offset="1" style="stop-color:#9ECBE1"/>
			</linearGradient>
			<path class="st33" d="M440.1,1528.3l40.8-132.2c0,0,16.7-65.1,9.3-80.6c-7.4-15.5-44.7-65.2-50.8-87.5c-6-22.3-3.9-50-2.5-83
				c1.4-33.1-31.8-111.8-33.1-122.6c-1.3-10.8-6.9,77.6-25.5,108.9c-18.6,31.3-40.6,35.7-33.6,70.5c7,34.8-18.7,66.4-23.8,91.7
				c-5.1,25.3-13.3,74.6,10.8,137.4c24.2,62.8,47.9,134.9,74.2,143.7C432.2,1583.5,439.4,1540.5,440.1,1528.3z"/>
		</g>
		<g>
			<path class="st34" d="M411.6,1534c0-0.3-0.4-25.6-4.8-48.5c-3-15.3-6.2-52.7-9.4-88.8c-1.7-19.5-3.5-39.8-5.2-56.2
				c-2.2-20.9-3.8-32.9-5.4-44.5c-2-14.5-3.8-28.2-6.5-57.7c-4.9-53.5,23.6-98.1,24.8-100l4.3,2.8c-0.3,0.4-28.7,45-24,96.7
				c2.7,29.3,4.6,43,6.5,57.4c1.6,11.6,3.2,23.7,5.4,44.7c1.7,16.5,3.5,36.7,5.2,56.3c3.2,36,6.4,73.2,9.3,88.3
				c4.5,23.3,4.9,49.2,4.9,49.4L411.6,1534z"/>
		</g>
		<linearGradient id="SVGID_36_" gradientUnits="userSpaceOnUse" x1="398.3207" y1="1678.5649" x2="410.7158" y2="1453.6794">
			<stop  offset="0" style="stop-color:#2F59A5"/>
			<stop  offset="1" style="stop-color:#D5E8F2"/>
		</linearGradient>
		<rect x="302" y="1537.7" class="st35" width="206.1" height="38.1"/>
	</g>
	<linearGradient id="SVGID_37_" gradientUnits="userSpaceOnUse" x1="101.1701" y1="1580.6389" x2="2243.2561" y2="1580.6389">
		<stop  offset="0" style="stop-color:#2F59A5"/>
		<stop  offset="1" style="stop-color:#D5E8F2"/>
	</linearGradient>
	<path class="st36" d="M2226.9,1564.3h-540.4h-358.9h-193h-136h-193H446.6h-329c-9,0-16.4,7.3-16.4,16.4c0,9,7.3,16.4,16.4,16.4h329
		h358.9h193h136h193h358.9h540.4c9,0,16.4-7.3,16.4-16.4C2243.3,1571.6,2235.9,1564.3,2226.9,1564.3z"/>
	<g>
		<g>
			
				<linearGradient id="SVGID_38_" gradientUnits="userSpaceOnUse" x1="-598.3442" y1="-1829.8013" x2="-534.9681" y2="-1829.8013" gradientTransform="matrix(-0.8469 0.5318 0.5318 0.8469 1567.8555 2695.3372)">
				<stop  offset="0.2957" style="stop-color:#FDDC70"/>
				<stop  offset="0.4032" style="stop-color:#FDC96A"/>
				<stop  offset="0.6206" style="stop-color:#FC995B"/>
				<stop  offset="0.9257" style="stop-color:#FB4C45"/>
				<stop  offset="1" style="stop-color:#FA3940"/>
			</linearGradient>
			<polyline class="st37" points="1065.7,810.5 1077.4,842.9 1119.3,855.7 1055.7,873.8 1043.3,826.6 			"/>
			<path class="st38" d="M1048,860.8l5.3,16.8l82.7-21.1l-3.8-9.2l-25.2-2.3c0,0-28.6-11-29.2-8.4c-0.6,2.6-3.6,16.8-11.6,18
				c-8.1,1.3-18.6-2.4-18.6-2.4L1048,860.8z"/>
		</g>
		<linearGradient id="SVGID_39_" gradientUnits="userSpaceOnUse" x1="1041.66" y1="585.7204" x2="978.2324" y2="760.1466">
			<stop  offset="0" style="stop-color:#FFFFFF"/>
			<stop  offset="1" style="stop-color:#9ECBE1"/>
		</linearGradient>
		<path class="st39" d="M982.5,550.7l59.9,126.2l27.8,147.2l-25.8,6.8c0,0-43.8-89.8-34.9-132.9l-87.7-99.5"/>
	</g>
	<g>
		<g>
			
				<linearGradient id="SVGID_40_" gradientUnits="userSpaceOnUse" x1="-5157.1611" y1="4695.7324" x2="-5096.5488" y2="4695.7324" gradientTransform="matrix(-0.8208 0.5713 0.5713 0.8208 -5650.4434 -513.1138)">
				<stop  offset="9.139790e-02" style="stop-color:#FDDC70"/>
				<stop  offset="0.2432" style="stop-color:#FDD86F"/>
				<stop  offset="0.3849" style="stop-color:#FDCD6B"/>
				<stop  offset="0.5227" style="stop-color:#FDBA65"/>
				<stop  offset="0.658" style="stop-color:#FCA05D"/>
				<stop  offset="0.7916" style="stop-color:#FB7E53"/>
				<stop  offset="0.9221" style="stop-color:#FB5548"/>
				<stop  offset="1" style="stop-color:#FA3940"/>
			</linearGradient>
			<path class="st40" d="M1214.7,419.5c0,0,6.7-4.2,9-8.7c2.3-4.5,1.2-17.1,1.2-17.1s2.5-1.9,5.1,3c2.6,5,0.2,12.5,5.4,13
				c5.9,0.6,5.2-1.2,11-2.4c5.6-1.1,18.4-12.9,18.4-12.9s5.9,6.2,0.6,12.6c-1.4,7.1-0.5,14.9-3.7,18.8c-3.2,3.9-7,4.5-7,4.5l-12,1.6
				l-20.5,7.2"/>
		</g>
		
			<linearGradient id="SVGID_41_" gradientUnits="userSpaceOnUse" x1="1864.339" y1="-55.3073" x2="2048.7761" y2="-55.3073" gradientTransform="matrix(0.8246 0.5658 -0.5658 0.8246 -581.5322 -668.2753)">
			<stop  offset="0.2957" style="stop-color:#FEB01F"/>
			<stop  offset="0.6061" style="stop-color:#FF9D13"/>
			<stop  offset="1" style="stop-color:#FF8001"/>
		</linearGradient>
		<path class="st41" d="M1023.6,401.2c0,0,73.4,27.8,108.3,28.6c34.9,0.8,83.2-16.6,83.2-16.6l6,26.1c0,0-87,23.3-114.7,22.9
			c-27.7-0.5-78-11.2-83.1-12.2"/>
	</g>
	<linearGradient id="SVGID_42_" gradientUnits="userSpaceOnUse" x1="823.3008" y1="1046.7783" x2="1919.6926" y2="1046.7783">
		<stop  offset="1.075270e-02" style="stop-color:#140B4C"/>
		<stop  offset="1" style="stop-color:#63077A"/>
	</linearGradient>
	<path class="st42" d="M1914.4,998.2c-62.6,2.8-118.6-57.2-145.1-93.5c-21.3-52.6-54.8-100.4-97.5-141l-48.5-233.1
		c0,0-97.4,53.9-138.1,123.2c-54.5-18-113.7-27.9-175.7-27.9c-268.6,0-486.3,185.4-486.3,414c0,35.3,5.2,69.6,15,102.4
		c26.7,123.9,130,249.6,130,249.6l44.9,170.9h140.1c0,0-6.5-72,4-129.5c47.9,13.4,99.1,20.7,152.2,20.7c41,0,80.8-4.3,118.8-12.5
		l34.1,121.3h140.1c0,0-7.9-95.6,7.9-145.8c15.9-50.2,309.2-314.5,309.2-314.5L1914.4,998.2z"/>
	<g>
		<linearGradient id="SVGID_43_" gradientUnits="userSpaceOnUse" x1="1202.5123" y1="235.513" x2="1413.7483" y2="235.513">
			<stop  offset="0.2957" style="stop-color:#FEB01F"/>
			<stop  offset="0.6061" style="stop-color:#FF9D13"/>
			<stop  offset="1" style="stop-color:#FF8001"/>
		</linearGradient>
		<path class="st43" d="M1390.4,291.3c-2.3,0-4.6-0.4-6.9-1.2l-168.2-61.8c-4.8-1.8-8.6-5.2-10.8-9.7c-2.3-4.6-2.6-9.8-0.8-14.6
			l4.5-12.2c2.7-7.3,9.8-12.2,17.8-12.2c2.3,0,4.6,0.4,6.9,1.2l168.2,61.8c4.8,1.8,8.6,5.2,10.8,9.7c2.3,4.6,2.6,9.8,0.8,14.6
			l-4.5,12.2C1405.5,286.4,1398.3,291.3,1390.4,291.3z"/>
		<linearGradient id="SVGID_44_" gradientUnits="userSpaceOnUse" x1="1211.3315" y1="235.5132" x2="1404.9293" y2="235.5132">
			<stop  offset="0.2957" style="stop-color:#FEB01F"/>
			<stop  offset="0.6061" style="stop-color:#FF9D13"/>
			<stop  offset="1" style="stop-color:#FF8001"/>
		</linearGradient>
		<path class="st44" d="M1399.9,276.1c-1.9,5.2-7.9,7.7-13.3,5.7L1218.4,220c-5.5-2-8.4-7.8-6.5-13l4.5-12.2
			c1.9-5.2,7.9-7.7,13.3-5.7l168.2,61.8c5.5,2,8.4,7.8,6.5,13L1399.9,276.1z"/>
		
			<rect x="1325.1" y="204.7" transform="matrix(0.3449 -0.9386 0.9386 0.3449 645.2534 1417.6398)" class="st11" width="26.2" height="83.7"/>
		
			<rect x="1233.9" y="191.4" transform="matrix(0.3449 -0.9386 0.9386 0.3449 617.0474 1310.4668)" class="st11" width="26.9" height="43.5"/>
	</g>
	<g>
		<g>
			<linearGradient id="SVGID_45_" gradientUnits="userSpaceOnUse" x1="1569.8306" y1="366.3073" x2="1759.0977" y2="366.3073">
				<stop  offset="0.2957" style="stop-color:#FEB01F"/>
				<stop  offset="0.6061" style="stop-color:#FF9D13"/>
				<stop  offset="1" style="stop-color:#FF8001"/>
			</linearGradient>
			<path class="st45" d="M1752.7,320.5l-7.1-12.9c-6.5-14-21-23.2-42.2-24.3c-43.3-2.2-98,30.3-122.2,72.5
				c-14.9,25.9-14.7,49.5-2.3,64.4l8.9,11.2c7.8,11.1,22.1,17.9,41.9,17.9c43.8,0.1,97.3-32.7,119.7-73.4
				C1761.5,353.9,1761.9,334,1752.7,320.5z"/>
			<linearGradient id="SVGID_46_" gradientUnits="userSpaceOnUse" x1="1559.3405" y1="349.2921" x2="1738.9568" y2="349.2921">
				<stop  offset="0.2957" style="stop-color:#FEB01F"/>
				<stop  offset="0.6061" style="stop-color:#FF9D13"/>
				<stop  offset="1" style="stop-color:#FF8001"/>
			</linearGradient>
			<path class="st46" d="M1727.6,353.2c-24.2,42.2-78.9,74.6-122.2,72.4c-43.3-2.2-58.8-38.2-34.7-80.4
				c24.2-42.2,78.9-74.6,122.2-72.5C1736.2,275.1,1751.7,311,1727.6,353.2z"/>
			<path class="st11" d="M1609.6,417c-1.3,0-2.5,0-3.7-0.1c-16.1-0.8-28.1-7-33.8-17.4c-6.9-12.6-4.6-30.7,6.3-49.8
				c10.6-18.4,27.9-35.7,48.8-48.5c20.7-12.7,42.5-19.7,61.6-19.7c1.3,0,2.5,0,3.7,0.1c16.1,0.8,28.1,7,33.8,17.4
				c6.9,12.6,4.6,30.7-6.3,49.8c-10.6,18.4-27.9,35.7-48.8,48.5C1650.5,410,1628.6,417,1609.6,417z"/>
		</g>
		<g>
			<path class="st47" d="M1617.2,389.6c-9.8-1.2-16.5-4.8-20.6-13.8l21.4-14.3c4.3,7.7,13.1,9.1,20.4,9.2c8.1,0,15.1-2.6,17.5-7.1
				c2.2-4-1.4-6.6-10.5-7.4c-18.1-1.7-32-6.2-21-26.2c7.5-13.6,23-21,38.3-23.4l5.8-10.5l20.8,0.1l-5.6,10.2
				c7.8,1.2,13.6,4,17.7,8.9l-20,14.4c-3.7-4.2-9.7-5.6-17.3-5.6c-5.9,0-12.7,1.7-15.1,6c-3,5.5,2.3,6.3,10.5,7.2
				c16.3,1.8,30.7,8.3,20.5,26.8c-8.3,15.1-25.3,23-42,25.4h0.1l-6.1,11.2l-20.8-0.1L1617.2,389.6z"/>
		</g>
	</g>
	<g>
		<g>
			
				<linearGradient id="SVGID_47_" gradientUnits="userSpaceOnUse" x1="1679.6493" y1="135.2017" x2="1816.3254" y2="135.2017" gradientTransform="matrix(-1 0 0 1 3241.5645 0)">
				<stop  offset="0.2957" style="stop-color:#FEB01F"/>
				<stop  offset="0.6061" style="stop-color:#FF9D13"/>
				<stop  offset="1" style="stop-color:#FF8001"/>
			</linearGradient>
			<path class="st48" d="M1429.8,102.1l5.1-9.3c4.7-10.1,15.2-16.8,30.5-17.5c31.3-1.6,70.8,21.8,88.2,52.3
				c10.7,18.7,10.6,35.8,1.7,46.5l-6.4,8.1c-5.6,8-16,12.9-30.2,12.9c-31.6,0.1-70.3-23.6-86.4-53
				C1423.5,126.2,1423.2,111.9,1429.8,102.1z"/>
			
				<linearGradient id="SVGID_48_" gradientUnits="userSpaceOnUse" x1="1672.0735" y1="122.9144" x2="1801.7814" y2="122.9144" gradientTransform="matrix(-1 0 0 1 3241.5645 0)">
				<stop  offset="0.2957" style="stop-color:#FEB01F"/>
				<stop  offset="0.6061" style="stop-color:#FF9D13"/>
				<stop  offset="1" style="stop-color:#FF8001"/>
			</linearGradient>
			<path class="st49" d="M1448,125.8c17.4,30.5,56.9,53.9,88.2,52.3c31.3-1.6,42.5-27.6,25-58c-17.5-30.5-56.9-53.9-88.2-52.3
				C1441.8,69.3,1430.6,95.3,1448,125.8z"/>
			<path class="st11" d="M1533.2,171.8c0.9,0,1.8,0,2.7-0.1c11.6-0.6,20.3-5.1,24.4-12.6c5-9.1,3.3-22.2-4.6-35.9
				c-7.6-13.3-20.1-25.8-35.2-35c-14.9-9.2-30.7-14.2-44.5-14.2c-0.9,0-1.8,0-2.7,0.1c-11.6,0.6-20.3,5.1-24.4,12.6
				c-5,9.1-3.3,22.2,4.6,35.9c7.6,13.3,20.1,25.8,35.2,35C1503.7,166.8,1519.5,171.8,1533.2,171.8z"/>
		</g>
		<g>
			<path class="st47" d="M1532,159.8l-15,0l-4.4-8.1l0.1,0c-12.1-1.7-24.3-7.4-30.3-18.3c-7.4-13.4,3.1-18.1,14.8-19.3
				c5.9-0.6,9.7-1.2,7.5-5.2c-1.7-3.1-6.6-4.3-10.9-4.3c-5.5,0-9.8,1-12.5,4l-14.5-10.4c3-3.6,7.1-5.6,12.8-6.4l-4.1-7.4l15,0
				l4.2,7.6c11.1,1.7,22.3,7.1,27.7,16.9c7.9,14.5-2.1,17.7-15.1,18.9c-6.6,0.6-9.1,2.4-7.5,5.3c1.8,3.2,6.9,5.1,12.7,5.1
				c5.3,0,11.6-1,14.7-6.6l15.5,10.4c-3,6.5-7.8,9.1-14.9,9.9L1532,159.8z"/>
		</g>
	</g>
	<g>
		<path d="M1451.2,679.9c-99.3-14.9-198.6-14.9-297.9,0c-1.7-10.8-2.6-16.2-4.3-27.1c102.1-15.4,204.4-15.4,306.5,0
			C1453.8,663.7,1452.9,669.1,1451.2,679.9z"/>
	</g>
	<g>
		<defs>
			<path id="SVGID_49_" d="M1451.2,679.9c-99.3-14.9-198.6-14.9-297.9,0c-1.7-10.8-58.2-264.2-59.9-275
				c102.1-15.4,299.6-40.9,401.7-25.5C1493.4,390.1,1452.9,669.1,1451.2,679.9z"/>
		</defs>
		<clipPath id="SVGID_50_">
			<use xlink:href="#SVGID_49_"  style="overflow:visible;"/>
		</clipPath>
		<g class="st50">
			<linearGradient id="SVGID_51_" gradientUnits="userSpaceOnUse" x1="1061.022" y1="543.5325" x2="1374.6364" y2="543.5325">
				<stop  offset="0.2957" style="stop-color:#FEB01F"/>
				<stop  offset="0.6061" style="stop-color:#FF9D13"/>
				<stop  offset="1" style="stop-color:#FF8001"/>
			</linearGradient>
			<circle class="st51" cx="1290.5" cy="543.5" r="156.8"/>
			
				<ellipse transform="matrix(0.7071 -0.7071 0.7071 0.7071 -6.356 1071.7203)" class="st11" cx="1290.5" cy="543.5" rx="131.3" ry="131.3"/>
			<g>
				<path class="st47" d="M1275.5,608.6c-15.2-1.8-27.9-7.4-41.1-21.5l19.7-22.6c12.5,12.1,26.4,14.3,37.1,14.3
					c11.8,0,19.9-4.2,19.9-11.2c0-6.3-7.2-10.3-21.2-11.6c-27.7-2.5-51.6-9.6-51.6-41.1c0-21.4,16.7-33.1,37.1-36.9v-16.5h30.4v16.1
					c12.3,1.8,23,6.2,32.9,13.9l-17.7,22.6c-8.7-6.5-18.6-8.7-29.7-8.7c-8.7,0-17.2,2.7-17.2,9.4c0,8.7,8.5,10,21,11.2
					c25.2,2.7,51.4,12.9,51.4,42c0,23.7-18.5,36.2-40.9,40h0.2v17.6h-30.4V608.6z"/>
			</g>
		</g>
	</g>
	<g>
		<linearGradient id="SVGID_52_" gradientUnits="userSpaceOnUse" x1="1147.2068" y1="1489.325" x2="1555.1348" y2="1489.325">
			<stop  offset="0" style="stop-color:#9ECBE1"/>
			<stop  offset="1" style="stop-color:#63077A;stop-opacity:0"/>
		</linearGradient>
		<path class="st52" d="M1502.8,1550.6l-29.6-135.7c-2.7-12.4-13.6-20.8-25.8-20.8c-1.8,0-3.7,0.2-5.6,0.6
			c-36.8,7.9-75,11.9-113.3,11.9c-49.6,0-98.4-6.6-145.1-19.7c-2.3-0.7-4.7-1-7.1-1c-4.9,0-9.8,1.4-14,4c-6.3,3.9-10.7,10.3-12,17.7
			c-1.3,6.9-2.3,14.4-3.1,22.3c45.9,12.6,93.9,19,142.6,19c38.3,0,76.4-4,113.3-11.9c1.9-0.4,3.7-0.6,5.6-0.6
			c12.2,0,23.1,8.4,25.8,20.8l29.6,135.7h91.1c-0.4-11.9-0.8-26.5-0.8-42.3H1502.8z"/>
		<linearGradient id="SVGID_53_" gradientUnits="userSpaceOnUse" x1="829.9697" y1="1198.4708" x2="1105.8973" y2="1198.4708">
			<stop  offset="0" style="stop-color:#9ECBE1"/>
			<stop  offset="1" style="stop-color:#63077A;stop-opacity:0"/>
		</linearGradient>
		<path class="st53" d="M1053.5,1550.6l-40.4-185.3c-0.9-4.1-2.7-7.9-5.4-11.2c-1-1.2-99.6-122.4-124.6-238.4
			c-0.1-0.7-0.3-1.3-0.5-2c-9.2-30.8-13.9-62.7-13.9-94.8c0-51.8,11.9-102,35.5-149.4c11.4-23,25.3-44.8,41.6-65.4
			c-33.7,32-60.7,68.1-80.4,107.7c-23.5,47.4-35.5,97.6-35.5,149.4c0,32.1,4.7,64,13.9,94.8c0.2,0.7,0.4,1.3,0.5,2
			c25,116,123.6,237.2,124.6,238.4c2.7,3.2,4.5,7.1,5.4,11.2l40.4,185.3h91.1c-0.4-11.8-0.7-26.4-0.8-42.3H1053.5z"/>
	</g>
	<g>
		<g>
			<g>
				
					<linearGradient id="SVGID_54_" gradientUnits="userSpaceOnUse" x1="4225.3379" y1="157.5245" x2="4265.7422" y2="157.5245" gradientTransform="matrix(0.8675 0.4974 -0.4974 0.8675 -1854.3264 -963.2533)">
					<stop  offset="1.075270e-02" style="stop-color:#140B4C"/>
					<stop  offset="1" style="stop-color:#63077A"/>
				</linearGradient>
				<path class="st54" d="M1738.4,1265.3c0,0,44.3,2.1,37.5,15.8c-6.8,13.7-54,13.1-54,13.1"/>
				<g>
					<g>
						
							<linearGradient id="SVGID_55_" gradientUnits="userSpaceOnUse" x1="3662.2935" y1="4265.752" x2="3724.5479" y2="4265.752" gradientTransform="matrix(0.9435 -0.3313 0.3313 0.9435 -3095.0339 -1271.7151)">
							<stop  offset="0.2957" style="stop-color:#FDDC70"/>
							<stop  offset="0.4032" style="stop-color:#FDC96A"/>
							<stop  offset="0.6206" style="stop-color:#FC995B"/>
							<stop  offset="0.9257" style="stop-color:#FB4C45"/>
							<stop  offset="1" style="stop-color:#FA3940"/>
						</linearGradient>
						<polyline class="st55" points="1782.5,1501.8 1800.2,1530.7 1784.4,1570.6 1837.2,1532.9 1808.5,1494.5 						"/>
						<path class="st38" d="M1832.2,1522.3l7.5,15.6l-73.3,40.7l-3.5-9.1l16.5-18.6c0,0,13-27.1,15.2-25.6c2.2,1.5,13.8,9.6,20.5,5
							c6.6-4.5,11.7-14.3,11.7-14.3L1832.2,1522.3z"/>
					</g>
					<g>
						
							<linearGradient id="SVGID_56_" gradientUnits="userSpaceOnUse" x1="2910.5334" y1="-2024.4716" x2="2972.7822" y2="-2024.4716" gradientTransform="matrix(0.6785 0.7347 -0.7347 0.6785 -2045.474 679.1594)">
							<stop  offset="0.2957" style="stop-color:#FDDC70"/>
							<stop  offset="0.4032" style="stop-color:#FDC96A"/>
							<stop  offset="0.6206" style="stop-color:#FC995B"/>
							<stop  offset="0.9257" style="stop-color:#FB4C45"/>
							<stop  offset="1" style="stop-color:#FA3940"/>
						</linearGradient>
						<polyline class="st56" points="1455,1437.1 1435.6,1464.8 1392.6,1466.2 1448.2,1499.6 1472.1,1458 						"/>
						<path class="st38" d="M1458.9,1489.3l-9.4,14.6l-73-41.2l5.9-7.7l24.5,4.3c0,0,29.9-3.1,29.8-0.4c-0.1,2.6-0.9,16.8,6.4,20.1
							c7.3,3.3,18.3,2.5,18.3,2.5L1458.9,1489.3z"/>
					</g>
					<linearGradient id="SVGID_57_" gradientUnits="userSpaceOnUse" x1="1753.3619" y1="1424.651" x2="1682.009" y2="1234.3771">
						<stop  offset="0" style="stop-color:#FFFFFF"/>
						<stop  offset="1" style="stop-color:#9ECBE1"/>
					</linearGradient>
					<polyline class="st57" points="1654.4,1240.8 1668.8,1261.3 1677.9,1385.3 1773.8,1515.3 1811.7,1496.1 1740.1,1363.1 
						1749.7,1252.8 1732.2,1237.3 					"/>
					<path class="st47" d="M1653.8,1241.5l-141.5,78.3l-72.6,125.1l31.4,24.9l90.3-112.4c0,0,110-24.7,139.8-38.1
						c48-21.5,47.2-79.4,47.2-79.4l-94.7-3.3L1653.8,1241.5z"/>
				</g>
				<g>
					<g>
						
							<linearGradient id="SVGID_58_" gradientUnits="userSpaceOnUse" x1="4178.5415" y1="-279.0565" x2="4433.1748" y2="-279.0565" gradientTransform="matrix(0.9871 -0.1603 0.1603 0.9871 -2632.0486 2046.9363)">
							<stop  offset="9.595919e-02" style="stop-color:#FDDC70"/>
							<stop  offset="0.2247" style="stop-color:#FDD76F"/>
							<stop  offset="0.3669" style="stop-color:#FDCA6A"/>
							<stop  offset="0.5154" style="stop-color:#FCB464"/>
							<stop  offset="0.6684" style="stop-color:#FC965A"/>
							<stop  offset="0.8248" style="stop-color:#FB6E4F"/>
							<stop  offset="0.9819" style="stop-color:#FA3F42"/>
							<stop  offset="1" style="stop-color:#FA3940"/>
						</linearGradient>
						<path class="st58" d="M1647.4,1072.5c-24.2,0.4-51.8,0.5-69.4-0.4c-37.5-1.8-103.1-14.6-103.1-14.6l-28.4,4.1
							c0,0-2-2.4-3.7,5.8c-1.8,8.2,14.4,23.3,19.5,20.7c5.2-2.6,19.4-2.8,19.4-2.8s-14.7,19.2-4.8,14.8c9.9-4.4,15.6-7.8,18-9.8
							c2.4-2,19-7.7,29.5-2.2c6.5,3.4,74.4,14,125.3,21.5C1651.2,1097.9,1648.8,1080.7,1647.4,1072.5z"/>
						<path class="st59" d="M1708.8,1073.3l-4.9-7.7c0,0-29.1,6.5-56.5,6.9c1.4,8.2,3.8,25.4,2.3,37.1c31.3,4.6,56.1,8.1,56.1,8.1
							L1708.8,1073.3z"/>
					</g>
				</g>
				<path class="st60" d="M1688.5,1001.5c-1.6-0.3-16.6-14.8,0.9-31.5c17.5-16.7,41.2,17.5,58.8,18.7c17.5,1.2-18.6,49.8-18.6,49.8"
					/>
				
					<linearGradient id="SVGID_59_" gradientUnits="userSpaceOnUse" x1="4080.1545" y1="-30.408" x2="4132.7192" y2="-30.408" gradientTransform="matrix(0.8675 0.4974 -0.4974 0.8675 -1854.3264 -963.2533)">
					<stop  offset="9.595919e-02" style="stop-color:#FDDC70"/>
					<stop  offset="0.2247" style="stop-color:#FDD76F"/>
					<stop  offset="0.3669" style="stop-color:#FDCA6A"/>
					<stop  offset="0.5154" style="stop-color:#FCB464"/>
					<stop  offset="0.6684" style="stop-color:#FC965A"/>
					<stop  offset="0.8248" style="stop-color:#FB6E4F"/>
					<stop  offset="0.9819" style="stop-color:#FA3F42"/>
					<stop  offset="1" style="stop-color:#FA3940"/>
				</linearGradient>
				<polygon class="st61" points="1708.8,1025.1 1704,1076.6 1743.3,1070.6 1731.2,1022.9 				"/>
				
					<linearGradient id="SVGID_60_" gradientUnits="userSpaceOnUse" x1="4073.0703" y1="68.0065" x2="4267.2993" y2="68.0065" gradientTransform="matrix(0.8675 0.4974 -0.4974 0.8675 -1854.3264 -963.2533)">
					<stop  offset="0" style="stop-color:#9ECBE1"/>
					<stop  offset="1" style="stop-color:#63077A"/>
				</linearGradient>
				<path class="st62" d="M1677.4,1065.7c-10.3,15.5,7.5,126.8-55.3,163.1l154.9,53.5c0,0,5.7-167.9-39.1-227.9
					C1737.9,1054.5,1687.7,1050.2,1677.4,1065.7z"/>
				
					<linearGradient id="SVGID_61_" gradientUnits="userSpaceOnUse" x1="4051.3762" y1="-48.567" x2="4103.3257" y2="-48.567" gradientTransform="matrix(0.8675 0.4974 -0.4974 0.8675 -1854.3264 -963.2533)">
					<stop  offset="9.595919e-02" style="stop-color:#FDDC70"/>
					<stop  offset="0.2247" style="stop-color:#FDD76F"/>
					<stop  offset="0.3669" style="stop-color:#FDCA6A"/>
					<stop  offset="0.5154" style="stop-color:#FCB464"/>
					<stop  offset="0.6684" style="stop-color:#FC965A"/>
					<stop  offset="0.8248" style="stop-color:#FB6E4F"/>
					<stop  offset="0.9819" style="stop-color:#FA3F42"/>
					<stop  offset="1" style="stop-color:#FA3940"/>
				</linearGradient>
				<path class="st63" d="M1728.5,1029.3c4-0.1,7.7-3.7,8.8-8.7c1.3-5.7-1.3-11.2-5.9-12.2c-1.8-0.4-5.3,1.6-6.9,2.5l-5-8.8
					l-3.1-7.8l-23.3,0.1c0,0-14.4,56.6,5,55.4c19.3-1.2,26.2-9.7,26.2-9.7L1728.5,1029.3z"/>
				<g>
					<path class="st59" d="M1720,1151.4c5.7-5.7,10.2-9.8,16.5-19.5c6.3-9.6,10.3-31.2,10.3-31.2s-1.2-19.4-20.5-26.5
						c-13.8-5.1-31.3,5.2-31.3,5.2s-1.7,20.2-12.8,39C1693.4,1124.3,1710.2,1135.3,1720,1151.4z"/>
					
						<linearGradient id="SVGID_62_" gradientUnits="userSpaceOnUse" x1="3945.9504" y1="106.288" x2="4157.29" y2="106.288" gradientTransform="matrix(0.8675 0.4974 -0.4974 0.8675 -1854.3264 -963.2533)">
						<stop  offset="9.595919e-02" style="stop-color:#FDDC70"/>
						<stop  offset="0.2247" style="stop-color:#FDD76F"/>
						<stop  offset="0.3669" style="stop-color:#FDCA6A"/>
						<stop  offset="0.5154" style="stop-color:#FCB464"/>
						<stop  offset="0.6684" style="stop-color:#FC965A"/>
						<stop  offset="0.8248" style="stop-color:#FB6E4F"/>
						<stop  offset="0.9819" style="stop-color:#FA3F42"/>
						<stop  offset="1" style="stop-color:#FA3940"/>
					</linearGradient>
					<path class="st64" d="M1682.3,1118.4c-10.4,17.5-22.2,40.1-55.6,37.6c-69.2-5.2-83.7-21.4-83.7-21.4s-5.8-21.6-10.6-19.4
						c-4.8,2.3,7,19.8-1.7,21.6c-8.7,1.8-37.8-5.1-37.8-5.1s9.5,30.8,34.4,30.9c23.2,0.1,118.6,63.2,192.6-11.2
						C1710.2,1135.3,1693.4,1124.3,1682.3,1118.4z"/>
				</g>
			</g>
		</g>
		<g>
			
				<linearGradient id="SVGID_63_" gradientUnits="userSpaceOnUse" x1="853.1358" y1="911.1796" x2="1086.347" y2="911.1796" gradientTransform="matrix(0.9612 -0.2758 0.2758 0.9612 257.8973 452.2426)">
				<stop  offset="0.2957" style="stop-color:#FEB01F"/>
				<stop  offset="0.6061" style="stop-color:#FF9D13"/>
				<stop  offset="1" style="stop-color:#FF8001"/>
			</linearGradient>
			<circle class="st65" cx="1493.3" cy="1045.7" r="116.6"/>
			<path class="st11" d="M1587.1,1018.8c14.9,51.8-15.1,105.9-66.9,120.7c-51.8,14.9-105.9-15.1-120.7-66.9
				c-14.9-51.8,15.1-105.9,66.9-120.7C1518.2,937,1572.2,967,1587.1,1018.8z"/>
			<g>
				<path class="st47" d="M1495.9,1095.3c-11.2,1.8-21.5,0.4-33.8-7l9.5-20.2c11.4,6.1,21.8,4.8,29.5,2.6
					c8.4-2.4,13.4-7.1,11.9-12.1c-1.3-4.5-7.3-5.9-17.5-3.9c-20.3,3.9-38.8,3.7-45.3-18.8c-4.4-15.3,5.1-27.1,19-34l-3.4-11.8
					l21.7-6.2l3.3,11.5c9.2-1.2,17.7-0.3,26.4,3.2l-8,19.8c-7.5-2.9-15.1-2.4-23-0.1c-6.2,1.8-11.7,5.5-10.4,10.3
					c1.8,6.2,8.1,5.4,17.3,3.7c18.5-3.2,39.4-1.4,45.4,19.5c4.9,17-5.8,29.7-21,37l0.1,0l3.6,12.6l-21.7,6.2L1495.9,1095.3z"/>
			</g>
		</g>
	</g>
	<g>
		<g>
			
				<linearGradient id="SVGID_64_" gradientUnits="userSpaceOnUse" x1="2070.5876" y1="-145.1777" x2="2133.9651" y2="-145.1777" gradientTransform="matrix(-0.9998 2.160000e-02 2.160000e-02 0.9998 3063.0066 973.3935)">
				<stop  offset="0.2957" style="stop-color:#FDDC70"/>
				<stop  offset="0.4032" style="stop-color:#FDC96A"/>
				<stop  offset="0.6206" style="stop-color:#FC995B"/>
				<stop  offset="0.9257" style="stop-color:#FB4C45"/>
				<stop  offset="1" style="stop-color:#FA3940"/>
			</linearGradient>
			<polyline class="st66" points="967.7,840.1 961.1,873.9 990.4,906.3 926.7,889.2 940.2,842.3 			"/>
			<path class="st47" d="M926.6,874.1l-4.1,17.1l81.8,24.4l1.5-9.8l-20.5-14.9c0,0-18.9-24.1-20.8-22.2c-1.8,1.9-11.7,12.6-19.2,9.5
				c-7.6-3.1-14.7-11.6-14.7-11.6L926.6,874.1z"/>
		</g>
		<linearGradient id="SVGID_65_" gradientUnits="userSpaceOnUse" x1="947.2748" y1="695.7265" x2="1081.1775" y2="949.4369">
			<stop  offset="0" style="stop-color:#FFFFFF"/>
			<stop  offset="1" style="stop-color:#9ECBE1"/>
		</linearGradient>
		<path class="st67" d="M898.5,558c0,0-16.3,37.6-2.5,66c20.4,41.8,69.7,88.2,69.7,88.2s-10.5,15.9-13.7,48.2
			c-3.2,32.3-13.4,86.6-13.4,86.6l27.5,6.6l48.4-136l-49.8-156.4"/>
		<path class="st60" d="M1004.8,338.1c-16.4,62.4-132.6,41.1-58.3,133.2c0,0,70.8-0.9,81.1-33.3c10.3-32.4,32.3-47.7,41.4-61.8
			C1078.1,362.1,1004.8,338.1,1004.8,338.1z"/>
		
			<linearGradient id="SVGID_66_" gradientUnits="userSpaceOnUse" x1="5237.6431" y1="-64.6574" x2="5292.208" y2="-64.6574" gradientTransform="matrix(0.9356 0.3532 -0.3532 0.9356 -3928.6843 -1394.1652)">
			<stop  offset="9.595919e-02" style="stop-color:#FDDC70"/>
			<stop  offset="0.2247" style="stop-color:#FDD76F"/>
			<stop  offset="0.3669" style="stop-color:#FDCA6A"/>
			<stop  offset="0.5154" style="stop-color:#FCB464"/>
			<stop  offset="0.6684" style="stop-color:#FC965A"/>
			<stop  offset="0.8248" style="stop-color:#FB6E4F"/>
			<stop  offset="0.9819" style="stop-color:#FA3F42"/>
			<stop  offset="1" style="stop-color:#FA3940"/>
		</linearGradient>
		<polygon class="st68" points="1031.3,361.8 1005.2,398.8 994,396.5 982.9,433.4 1029.9,456 1039.5,417.1 1028.1,410.8 
			1047.5,376.2 		"/>
		
			<linearGradient id="SVGID_67_" gradientUnits="userSpaceOnUse" x1="5245.1641" y1="-103.929" x2="5266.2402" y2="-103.929" gradientTransform="matrix(0.9356 0.3532 -0.3532 0.9356 -3928.6843 -1394.1652)">
			<stop  offset="9.595919e-02" style="stop-color:#FDDC70"/>
			<stop  offset="0.2247" style="stop-color:#FDD76F"/>
			<stop  offset="0.3669" style="stop-color:#FDCA6A"/>
			<stop  offset="0.5154" style="stop-color:#FCB464"/>
			<stop  offset="0.6684" style="stop-color:#FC965A"/>
			<stop  offset="0.8248" style="stop-color:#FB6E4F"/>
			<stop  offset="0.9819" style="stop-color:#FA3F42"/>
			<stop  offset="1" style="stop-color:#FA3940"/>
		</linearGradient>
		<path class="st69" d="M1034.7,369.7c-2.6,5.2-9,7.3-14.2,4.6c-5.2-2.6-7.2-9-4.6-14.2c2.6-5.2,9-7.3,14.2-4.6
			C1035.2,358.1,1037.3,364.5,1034.7,369.7z"/>
		<path class="st60" d="M1076.9,343.2c0,0,6.9,41.4-30.8,60.2l20-52.5L1076.9,343.2z"/>
		
			<linearGradient id="SVGID_68_" gradientUnits="userSpaceOnUse" x1="5259.0864" y1="-102.8613" x2="5296.8926" y2="-102.8613" gradientTransform="matrix(0.9356 0.3532 -0.3532 0.9356 -3928.6843 -1394.1652)">
			<stop  offset="9.595919e-02" style="stop-color:#FDDC70"/>
			<stop  offset="0.2247" style="stop-color:#FDD76F"/>
			<stop  offset="0.3669" style="stop-color:#FDCA6A"/>
			<stop  offset="0.5154" style="stop-color:#FCB464"/>
			<stop  offset="0.6684" style="stop-color:#FC965A"/>
			<stop  offset="0.8248" style="stop-color:#FB6E4F"/>
			<stop  offset="0.9819" style="stop-color:#FA3F42"/>
			<stop  offset="1" style="stop-color:#FA3940"/>
		</linearGradient>
		<path class="st70" d="M1072.7,352.5l-12.4,36.4c0,0-13,23.9-28.1,9.8c-15-14.2,1.4-44.8,1.4-44.8L1072.7,352.5z"/>
		<path class="st60" d="M1077.2,354.7c0,0-38.8,16.9-52.5,8.6c-9.7-5.8-19.1-12.7-21.4-18.7c-1-2.4,2.4-8.4,2.4-8.4
			s38.8-54.5,71.6,8L1077.2,354.7z"/>
		<path class="st71" d="M1052.3,391l-12.9-5.3c0,0,1.6,8.6,6,8.8"/>
		
			<linearGradient id="SVGID_69_" gradientUnits="userSpaceOnUse" x1="1408.8309" y1="31.4093" x2="1535.792" y2="31.4093" gradientTransform="matrix(0.9356 0.3532 -0.3532 0.9356 -397.9489 -61.0414)">
			<stop  offset="0" style="stop-color:#FE340C"/>
			<stop  offset="0.9624" style="stop-color:#FF820A"/>
		</linearGradient>
		<path class="st72" d="M978,384.2c18.1-3.1,27.7,14.4,27.7,14.4l-2.3,2c5,8.7,9.4,28.5,16.4,32.1c0.2,0.1,9.9-20.9,10.3-23.9
			c0.2-1.4,10.5,6.3,14.7,15.7c4.2,9.4-11.5,21.5-10.3,38.1c0.8,21.8-12.9,21.1-19.1,27.2c-9.8,9.6-7.9,73.2-7.9,73.2
			s0,22.9-45.4,22.5c-23.2-0.2-89.9-22-89.9-22s48.2-63.8,65.9-93.2c9.3-15.6,9.1-21.5,14.6-36C952.7,434.2,955.1,388.1,978,384.2z"
			/>
		<linearGradient id="SVGID_70_" gradientUnits="userSpaceOnUse" x1="1148.9518" y1="483.1528" x2="895.2278" y2="366.3873">
			<stop  offset="0.2957" style="stop-color:#FEB01F"/>
			<stop  offset="0.4365" style="stop-color:#FE9D26"/>
			<stop  offset="0.7192" style="stop-color:#FD6E35"/>
			<stop  offset="1" style="stop-color:#FA3940"/>
		</linearGradient>
		<path class="st73" d="M988,387.2c13.8,7.1,25.2,19.5,39,26.7c1.9,1.5,3.8,2.9,5.7,4.4c2.3,1.6,4.7,3.3,7,4.9
			c14.2,9.6,28.7,18.3,40,22.4c32.8,12.1,84.1,11.5,84.1,11.5l-2.9,26.6c0,0-89.8-6.3-115.8-15.8c-9.7-3.6-22-9.5-33.8-15.7
			c-2.4-1.2-4.7-2.5-6.9-3.7c-2.2-1.1-4.5-2.3-6.9-3.5c-2.1-0.9-4.3-1.9-6.5-3c-2.2-1-4.4-2.1-6.5-3.2
			c-10.9-5.7-21.4-13.6-23.2-25.9c-1.8-13.2,7-26.4,19.9-27.5C985.2,385,988,387.2,988,387.2z"/>
	</g>
	<g>
		
			<linearGradient id="SVGID_71_" gradientUnits="userSpaceOnUse" x1="-11054.0459" y1="16150.9951" x2="-10993.4336" y2="16150.9951" gradientTransform="matrix(-0.9359 0.3524 0.3524 0.9359 -14819.1377 -10771.3115)">
			<stop  offset="9.139790e-02" style="stop-color:#FDDC70"/>
			<stop  offset="0.2432" style="stop-color:#FDD86F"/>
			<stop  offset="0.3849" style="stop-color:#FDCD6B"/>
			<stop  offset="0.5227" style="stop-color:#FDBA65"/>
			<stop  offset="0.658" style="stop-color:#FCA05D"/>
			<stop  offset="0.7916" style="stop-color:#FB7E53"/>
			<stop  offset="0.9221" style="stop-color:#FB5548"/>
			<stop  offset="1" style="stop-color:#FA3940"/>
		</linearGradient>
		<path class="st74" d="M1163,460.4c0,0,7.5-2.4,10.9-6.2c3.4-3.8,5.4-16.3,5.4-16.3s2.9-1.3,4.2,4.2c1.3,5.4-2.8,12.1,2,13.9
			c5.6,2.1,5.4,0.1,11.2,0.4c5.7,0.3,21-8,21-8s4.2,7.4-2.5,12.4c-3.1,6.5-4.2,14.3-8.2,17.3c-4.1,3-7.9,2.6-7.9,2.6l-12-1.4
			l-21.7,1.9"/>
	</g>
	<g>
		<g>
			<g>
				<g>
					<path class="st47" d="M667.8,1568.4c-0.8,0-1.6-0.1-2.4-0.4c-3.7-1.3-5.7-5.4-4.4-9.2l252.8-709.7c1.3-3.7,5.4-5.7,9.2-4.4
						c3.7,1.3,5.7,5.4,4.4,9.2l-252.9,709.7C673.6,1566.6,670.8,1568.4,667.8,1568.4z"/>
				</g>
				<g>
					<path class="st47" d="M803.6,1568.4c-0.8,0-1.6-0.1-2.4-0.4c-3.7-1.3-5.7-5.4-4.4-9.2l252.9-709.7c1.3-3.7,5.4-5.7,9.2-4.4
						c3.7,1.3,5.7,5.4,4.4,9.2l-252.8,709.7C809.3,1566.6,806.6,1568.4,803.6,1568.4z"/>
				</g>
				<g>
					<rect x="686.8" y="1511.4" class="st47" width="135.5" height="7.2"/>
					<rect x="721.4" y="1410.4" class="st47" width="135.5" height="7.2"/>
					<rect x="756.1" y="1309.4" class="st47" width="135.5" height="7.2"/>
					<rect x="790.7" y="1208.4" class="st47" width="135.5" height="7.2"/>
					<rect x="825.3" y="1107.3" class="st47" width="135.5" height="7.2"/>
					<rect x="860" y="1006.3" class="st47" width="135.5" height="7.2"/>
					<rect x="894.6" y="905.3" class="st47" width="135.5" height="7.2"/>
				</g>
			</g>
			<g>
				<g>
					<path class="st47" d="M1307.9,1568.4c0.8,0,1.6-0.1,2.4-0.4c3.7-1.3,5.7-5.4,4.4-9.2l-252.8-709.7c-1.3-3.7-5.4-5.7-9.2-4.4
						c-3.7,1.3-5.7,5.4-4.4,9.2l252.8,709.7C1302.1,1566.6,1304.9,1568.4,1307.9,1568.4z"/>
				</g>
				<g>
					<path class="st47" d="M1172.1,1568.4c0.8,0,1.6-0.1,2.4-0.4c3.7-1.3,5.7-5.4,4.4-9.2L926,849.1c-1.3-3.7-5.4-5.7-9.2-4.4
						c-3.7,1.3-5.7,5.4-4.4,9.2l252.9,709.7C1166.4,1566.6,1169.2,1568.4,1172.1,1568.4z"/>
				</g>
				<g>
					<rect x="1153.4" y="1511.4" class="st47" width="135.5" height="7.2"/>
					<rect x="1118.8" y="1410.4" class="st47" width="135.5" height="7.2"/>
					<rect x="1084.1" y="1309.4" class="st47" width="135.5" height="7.2"/>
					<rect x="1049.5" y="1208.4" class="st47" width="135.5" height="7.2"/>
					<rect x="1014.8" y="1107.3" class="st47" width="135.5" height="7.2"/>
					<rect x="980.2" y="1006.3" class="st47" width="135.5" height="7.2"/>
					<rect x="945.5" y="905.3" class="st47" width="135.5" height="7.2"/>
				</g>
			</g>
		</g>
	</g>
	<g>
		<g>
			<g>
				
					<linearGradient id="SVGID_72_" gradientUnits="userSpaceOnUse" x1="125.9801" y1="146.7652" x2="164.6863" y2="146.7652" gradientTransform="matrix(-0.9584 -0.2854 -0.2854 0.9584 683.7543 764.7574)">
					<stop  offset="9.595919e-02" style="stop-color:#FDDC70"/>
					<stop  offset="0.2247" style="stop-color:#FDD76F"/>
					<stop  offset="0.3669" style="stop-color:#FDCA6A"/>
					<stop  offset="0.5154" style="stop-color:#FCB464"/>
					<stop  offset="0.6684" style="stop-color:#FC965A"/>
					<stop  offset="0.8248" style="stop-color:#FB6E4F"/>
					<stop  offset="0.9819" style="stop-color:#FA3F42"/>
					<stop  offset="1" style="stop-color:#FA3940"/>
				</linearGradient>
				<path class="st75" d="M514.5,889.1l-15.3-18.5c0,0-12.1-3.2-12.2-6.3c-0.1-3.1,0.4-19.8,1.3-20.2c0.9-0.3,7.4-3.5,10.3-3
					c2.9,0.5,11.5,11.4,14.3,15.6c2.8,4.3,4.7,21.1,5.6,21.6"/>
				<path class="st76" d="M490.4,817.9l22.8-10.2c0.6-0.3,2.6,0.4,2.5,1l-2.4,47.5c0,0.6-0.6,1.4-1.2,1.7l-22.8,10.2
					c-0.6,0.3-2.6-0.4-2.5-1l2.4-47.5C489.1,818.9,489.7,818.2,490.4,817.9z"/>
				<polygon class="st77" points="510.3,855.4 512.5,812.2 493.3,820.7 491.1,864 				"/>
				
					<linearGradient id="SVGID_73_" gradientUnits="userSpaceOnUse" x1="117.2953" y1="137.8521" x2="145.2015" y2="137.8521" gradientTransform="matrix(-0.9584 -0.2854 -0.2854 0.9584 683.7543 764.7574)">
					<stop  offset="9.595919e-02" style="stop-color:#FDDC70"/>
					<stop  offset="0.2247" style="stop-color:#FDD76F"/>
					<stop  offset="0.3669" style="stop-color:#FDCA6A"/>
					<stop  offset="0.5154" style="stop-color:#FCB464"/>
					<stop  offset="0.6684" style="stop-color:#FC965A"/>
					<stop  offset="0.8248" style="stop-color:#FB6E4F"/>
					<stop  offset="0.9819" style="stop-color:#FA3F42"/>
					<stop  offset="1" style="stop-color:#FA3940"/>
				</linearGradient>
				<path class="st78" d="M527,880.3c0.3-0.3-9.3-15.5-9.3-15.5s4.5-10.5,1.3-16.1c-3.2-5.6-1.1-13.5-1.1-13.5s-6.2-1.5-6.2,4.8
					c0,6.3,0.8,9.1,0.8,9.1s-12.6,7.4-7.2,16.7c5.4,9.2,12.9,17.5,12.9,17.5"/>
			</g>
			<g>
				
					<linearGradient id="SVGID_74_" gradientUnits="userSpaceOnUse" x1="-5455.3701" y1="2807.6929" x2="-5381.916" y2="2807.6929" gradientTransform="matrix(0.7748 0.6323 -0.6323 0.7748 6398.0347 2444.7585)">
					<stop  offset="0.2957" style="stop-color:#FDDC70"/>
					<stop  offset="0.4032" style="stop-color:#FDC96A"/>
					<stop  offset="0.6206" style="stop-color:#FC995B"/>
					<stop  offset="0.9257" style="stop-color:#FB4C45"/>
					<stop  offset="1" style="stop-color:#FA3940"/>
				</linearGradient>
				<polyline class="st79" points="439.5,1156.4 421.4,1191.9 371.5,1200.7 441.9,1230.5 463,1178 				"/>
				<path class="st80" d="M452.7,1216.7l-8.5,18.6l-92.1-36.1l5.7-10l29.3,0.9c0,0,34.5-8.5,34.8-5.4c0.3,3.1,1.7,19.8,10.8,22.4
					c9.1,2.6,21.8-0.1,21.8-0.1L452.7,1216.7z"/>
			</g>
			<g>
				
					<linearGradient id="SVGID_75_" gradientUnits="userSpaceOnUse" x1="-5305.603" y1="4345.9453" x2="-5232.1421" y2="4345.9453" gradientTransform="matrix(0.8881 -0.4599 0.4599 0.8881 3227.502 -5027.0562)">
					<stop  offset="0.2957" style="stop-color:#FDDC70"/>
					<stop  offset="0.4032" style="stop-color:#FDC96A"/>
					<stop  offset="0.6206" style="stop-color:#FC995B"/>
					<stop  offset="0.9257" style="stop-color:#FB4C45"/>
					<stop  offset="1" style="stop-color:#FA3940"/>
				</linearGradient>
				<polyline class="st81" points="518.4,1226.9 543.9,1257.7 532.1,1307 587.5,1254.1 547.6,1214 				"/>
				<path class="st80" d="M579.1,1238.7l13.6,15.2l-69.7,70.2l-6.9-9.2l12.5-26.5c0,0,5.9-35,8.8-34.1c3,1,18.8,6.3,24.8-1
					c6-7.3,8.6-20,8.6-20L579.1,1238.7z"/>
			</g>
			<path class="st82" d="M573,1042.6c-5.5,3.9-113.5,68.6-104.3,71.8c9.2,3.1,54.7,138.7,54.7,138.7l44.9-26.6L532,1123.2
				c0,0,109.3-43.4,114-42.6"/>
			<path class="st60" d="M666.9,855.3c1.7-0.3,24.1-35.5,24.1-35.5l-0.9-27.3l-64.3-31.9c0,0-28.8,35,14.4,50.8"/>
			<path class="st83" d="M623.8,880.8l-69.8,43.6l-29.8-52.7l-20.7,13.6c0,0,30.6,72.5,38.9,73.9c8.3,1.4,84.1-31,84.1-31"/>
			<path class="st47" d="M628.5,872.5"/>
			
				<linearGradient id="SVGID_76_" gradientUnits="userSpaceOnUse" x1="-4303.4185" y1="647.7713" x2="-4246.0479" y2="647.7713" gradientTransform="matrix(-0.9985 -5.510000e-02 -5.510000e-02 0.9985 -3588.1736 -6.7359)">
				<stop  offset="9.595919e-02" style="stop-color:#FDDC70"/>
				<stop  offset="0.2247" style="stop-color:#FDD76F"/>
				<stop  offset="0.3669" style="stop-color:#FDCA6A"/>
				<stop  offset="0.5154" style="stop-color:#FCB464"/>
				<stop  offset="0.6684" style="stop-color:#FC965A"/>
				<stop  offset="0.8248" style="stop-color:#FB6E4F"/>
				<stop  offset="0.9819" style="stop-color:#FA3F42"/>
				<stop  offset="1" style="stop-color:#FA3940"/>
			</linearGradient>
			<polygon class="st84" points="661,832.1 672.7,883.5 667.2,921.3 613.4,917.1 639.6,880.1 639.1,836.7 			"/>
			<path class="st85" d="M659.4,840.9c-0.8,3.1-5.7,21.1-19.1,23.5v-10.2l18.1-14.5"/>
			<path class="st83" d="M702.8,998.2c-3.2-17.5,16.1-73.3,5.7-102.2c-3-8.3-34.5-17.8-37.6-19.3c-6.8-3.3-13.1,1-23.6,0.5
				c-0.4,0-7.7-4.2-7.7-4.2s-24.6,8.2-29.8,23.3c-4.6,13.4,4.8,59.9,1.7,84c-3.4,27-37.3,47.3-37.3,47.3l111.4,30.8
				C685.8,1058.5,707,1020.8,702.8,998.2z"/>
			
				<linearGradient id="SVGID_77_" gradientUnits="userSpaceOnUse" x1="-205.5008" y1="652.1442" x2="39.376" y2="652.1442" gradientTransform="matrix(-0.9865 -0.1639 -0.1639 0.9865 647.0899 458.3528)">
				<stop  offset="0" style="stop-color:#9ECBE1"/>
				<stop  offset="1" style="stop-color:#63077A"/>
			</linearGradient>
			<path class="st86" d="M692.1,1046.9c0,0-17.3,44.2-50,40.6c-55.7-6-100.9-26.8-100.9-26.8s13,27-13.3,47.5
				c-70.4,54.9-54.5,77.8-55.9,76.7l-46.6-26.4l93.6-155L692.1,1046.9z"/>
			<g>
				<g>
					<polygon class="st80" points="606.3,1018.9 496.6,1000.7 482.5,930.4 592.2,948.6 					"/>
					
						<rect x="563.1" y="950.7" transform="matrix(0.1639 -0.9865 0.9865 0.1639 -528.5806 1408.6824)" class="st80" width="7.2" height="130.9"/>
				</g>
				<path class="st47" d="M552.6,980.6c-0.6,3.5-3.9,5.9-7.4,5.3c-3.5-0.6-5.9-3.9-5.3-7.5c0.6-3.5,3.9-5.9,7.5-5.3
					C550.8,973.8,553.2,977.1,552.6,980.6z"/>
			</g>
			
				<linearGradient id="SVGID_78_" gradientUnits="userSpaceOnUse" x1="4809.3486" y1="548.3026" x2="4863.9258" y2="548.3026" gradientTransform="matrix(0.9865 0.1639 -0.1639 0.9865 -4037.9138 -319.6283)">
				<stop  offset="9.595919e-02" style="stop-color:#FDDC70"/>
				<stop  offset="0.2547" style="stop-color:#FED76F"/>
				<stop  offset="0.3736" style="stop-color:#FED06E"/>
				<stop  offset="0.4512" style="stop-color:#FEC76B"/>
				<stop  offset="0.5751" style="stop-color:#FDB064"/>
				<stop  offset="0.73" style="stop-color:#FC8A58"/>
				<stop  offset="0.908" style="stop-color:#FB5748"/>
				<stop  offset="1" style="stop-color:#FA3940"/>
			</linearGradient>
			<polyline class="st87" points="654.3,1004 618.9,1006.4 602.9,1018.2 619.8,1021.9 657.8,1020.9 			"/>
			<path class="st83" d="M680.1,935.4c-0.3-16.2,14-46.5,31.1-40.7c0,0,55.4,119.6,44.3,123c-11.1,3.4-99.8,8.6-99.8,8.6l-7.8-26
				l69.2-6.7"/>
			<path class="st88" d="M650.6,828.5c-0.3,6,4.3,11.2,10.3,11.5c6,0.3,11.2-4.3,11.5-10.3c0.3-6-4.3-11.1-10.3-11.5
				C656.1,817.9,650.9,822.5,650.6,828.5z"/>
			
				<linearGradient id="SVGID_79_" gradientUnits="userSpaceOnUse" x1="-4271.8062" y1="631.1218" x2="-4271.8062" y2="568.972" gradientTransform="matrix(-0.9985 -5.510000e-02 -5.510000e-02 0.9985 -3588.1736 -6.7359)">
				<stop  offset="9.595919e-02" style="stop-color:#FDDC70"/>
				<stop  offset="0.2247" style="stop-color:#FDD76F"/>
				<stop  offset="0.3669" style="stop-color:#FDCA6A"/>
				<stop  offset="0.5154" style="stop-color:#FCB464"/>
				<stop  offset="0.6684" style="stop-color:#FC965A"/>
				<stop  offset="0.8248" style="stop-color:#FB6E4F"/>
				<stop  offset="0.9819" style="stop-color:#FA3F42"/>
				<stop  offset="1" style="stop-color:#FA3940"/>
			</linearGradient>
			<path class="st89" d="M629.6,795.9l-6.8,32.1c0,0-1.7,35,19.1,30.1c17.1-4,23.5-31.1,24.3-39.8c0.2-1.8-8.3,1.1-8.3,1.1
				l-0.1-15.4L629.6,795.9z"/>
			<path class="st47" d="M627.6,841.5l12.5,1.7c0,0-5.1,6-8.7,4.2"/>
			<path class="st47" d="M683.8,883.5c0,0-5-21.6-5.7-21.2c-0.6,0.4-33.1,15.8-33.1,15.8"/>
			<polyline class="st47" points="643.5,877.1 638.6,866 630.4,875.1 			"/>
		</g>
	</g>
	<linearGradient id="SVGID_80_" gradientUnits="userSpaceOnUse" x1="2270.3779" y1="440.0175" x2="1526.8652" y2="827.6315">
		<stop  offset="0" style="stop-color:#FFFFFF"/>
		<stop  offset="1" style="stop-color:#9ECBE1"/>
	</linearGradient>
	<path class="st90" d="M2113,654.7V595h-47.7c-3.9-19.9-11.8-38.5-22.7-54.8l33.8-33.8l-42.2-42.2l-33.8,33.8
		c-16.3-10.9-34.9-18.8-54.8-22.7v-47.7H1886v47.7c-19.9,4-38.5,11.8-54.8,22.7l-33.8-33.8l-42.2,42.2l33.8,33.8
		c-10.9,16.3-18.7,34.9-22.7,54.8h-47.7v59.7h47.7c4,19.9,11.8,38.5,22.7,54.8l-33.8,33.8l42.2,42.2l33.8-33.8
		c16.3,10.9,34.9,18.8,54.8,22.7v47.7h59.7v-47.7c19.9-4,38.5-11.8,54.8-22.7l33.8,33.8l42.2-42.2l-33.8-33.8
		c10.9-16.3,18.8-34.9,22.7-54.8H2113z M1915.8,709.4c-46.7,0-84.5-37.9-84.5-84.5c0-46.7,37.8-84.5,84.5-84.5
		c46.7,0,84.5,37.8,84.5,84.5C2000.3,671.6,1962.5,709.4,1915.8,709.4z"/>
	<g>
		<linearGradient id="SVGID_81_" gradientUnits="userSpaceOnUse" x1="1806.0493" y1="1026.8149" x2="1848.3345" y2="1026.8149">
			<stop  offset="0" style="stop-color:#FE340C"/>
			<stop  offset="0.9624" style="stop-color:#FF820A"/>
		</linearGradient>
		<polyline class="st91" points="1806,1003 1806,1050.6 1848.3,1008.3 		"/>
		<linearGradient id="SVGID_82_" gradientUnits="userSpaceOnUse" x1="1784.0782" y1="963.5435" x2="1963.7814" y2="963.5435">
			<stop  offset="0" style="stop-color:#FE340C"/>
			<stop  offset="0.9624" style="stop-color:#FF820A"/>
		</linearGradient>
		<path class="st92" d="M1963.8,1007.6c0,4.9-3.9,8.8-8.8,8.8h-162.1c-4.9,0-8.8-3.9-8.8-8.8v-88.1c0-4.9,3.9-8.8,8.8-8.8H1955
			c4.9,0,8.8,3.9,8.8,8.8V1007.6z"/>
	</g>
	<g>
		<g>
			
				<linearGradient id="SVGID_83_" gradientUnits="userSpaceOnUse" x1="2157.9248" y1="679.9243" x2="2347.1919" y2="679.9243" gradientTransform="matrix(-1 0 0 1 4099.4434 0)">
				<stop  offset="0.2957" style="stop-color:#FEB01F"/>
				<stop  offset="0.6061" style="stop-color:#FF9D13"/>
				<stop  offset="1" style="stop-color:#FF8001"/>
			</linearGradient>
			<path class="st93" d="M1758.6,634.1l7.1-12.9c6.5-14,21-23.2,42.2-24.3c43.3-2.2,98,30.3,122.2,72.5
				c14.9,25.9,14.7,49.5,2.3,64.4l-8.9,11.2c-7.8,11.1-22.1,17.9-41.9,17.9c-43.8,0.1-97.3-32.7-119.7-73.4
				C1749.9,667.5,1749.4,647.7,1758.6,634.1z"/>
			
				<linearGradient id="SVGID_84_" gradientUnits="userSpaceOnUse" x1="2147.4346" y1="662.9087" x2="2327.051" y2="662.9087" gradientTransform="matrix(-1 0 0 1 4099.4434 0)">
				<stop  offset="0.2957" style="stop-color:#FEB01F"/>
				<stop  offset="0.6061" style="stop-color:#FF9D13"/>
				<stop  offset="1" style="stop-color:#FF8001"/>
			</linearGradient>
			<path class="st94" d="M1783.8,666.9c24.2,42.2,78.9,74.6,122.2,72.4c43.3-2.2,58.8-38.2,34.7-80.4
				c-24.2-42.2-78.9-74.6-122.2-72.5C1775.1,588.7,1759.6,624.7,1783.8,666.9z"/>
			<path class="st11" d="M1901.8,730.6c1.3,0,2.5,0,3.7-0.1c16.1-0.8,28.1-7,33.8-17.4c6.9-12.6,4.6-30.7-6.3-49.8
				c-10.6-18.4-27.9-35.7-48.8-48.5c-20.7-12.7-42.5-19.7-61.6-19.7c-1.3,0-2.5,0-3.7,0.1c-16.1,0.8-28.1,7-33.8,17.4
				c-6.9,12.6-4.6,30.7,6.3,49.8c10.6,18.4,27.9,35.7,48.8,48.5C1860.9,723.6,1882.7,730.6,1901.8,730.6z"/>
		</g>
		<g>
			<path class="st47" d="M1900.1,714l-20.8,0.1l-6.1-11.2l0.1,0c-16.7-2.4-33.7-10.3-42-25.4c-10.2-18.5,4.2-25,20.5-26.8
				c8.1-0.8,13.5-1.6,10.5-7.2c-2.3-4.3-9.1-6-15.1-6c-7.6,0-13.6,1.4-17.3,5.6l-20-14.4c4.1-5,9.9-7.7,17.7-8.9l-5.6-10.2l20.8-0.1
				l5.8,10.5c15.3,2.4,30.8,9.8,38.3,23.4c11,20-2.9,24.5-21,26.2c-9.1,0.8-12.7,3.4-10.5,7.4c2.5,4.5,9.5,7.1,17.5,7.1
				c7.3,0,16.1-1.4,20.4-9.2l21.4,14.3c-4.1,9-10.8,12.6-20.6,13.8L1900.1,714z"/>
		</g>
	</g>
</g>
</svg>
